<?xml version="1.0" standalone="no"?> <!DOCTYPE svg PUBLIC "-//W3C//DTD SVG 1.0//EN" "http://www.w3.org/TR/2001/REC-SVG-20010904/DTD/svg10.dtd" > <svg xmlns="http://www.w3.org/2000/svg" width="100%" height="100%">
<defs >
<font id="maisonneuemedium" horiz-adv-x="464" ><font-face
    font-family="Maison Neue"
    units-per-em="1000"
    panose-1="2 0 0 0 0 0 0 0 0 0"
    ascent="775"
    descent="-225"
    alphabetic="0" />
<missing-glyph horiz-adv-x="706" d="M60 0V423Q60 540 146 627T352 715Q473 715 559 628T646 423V0H618L553 65L485 0L422 65L351 0L282 65L219 0L152 65L86 0H60ZM420 305L483 368L547 305L561 319L497 382L561 446L547 460L483 396L420 460L406 446L469 382L406
319L420 305ZM160 305L223 368L287 305L301 319L237 382L301 446L287 460L223 396L160 460L146 446L209 382L146 319L160 305Z" />
<glyph unicode=" " glyph-name="space" horiz-adv-x="250" />
<glyph unicode="!" glyph-name="exclam" horiz-adv-x="327" d="M113 216V700H213V216H113ZM100 0V124H227V0H100Z" />
<glyph unicode="&quot;" glyph-name="quotedbl" horiz-adv-x="379" d="M80 469V700H150V469H80ZM209 469V700H279V469H209Z" />
<glyph unicode="#" glyph-name="numbersign" horiz-adv-x="682" d="M189 145L197 285H70V354H202L211 491H103V559H216L225 700H299L290 559H410L420 700H494L485 559H612V491H480L471 354H579V285H467L458 145H384L392 285H272L263 145H189ZM277 354H397L406
491H285L277 354Z" />
<glyph unicode="$" glyph-name="dollar" horiz-adv-x="663" d="M55 239L160 260Q175 177 207 134T310 82V326Q193 358 140 405T87 524Q87 600 147 655T311 714V775H358V713Q448 705 507 658T583 524L486 499Q473 550 444 581T358 618V409Q501 368 554 320T608
192Q608 100 542 44T357 -15V-98H310V-13Q85 7 55 239ZM358 312Q358 274 358 196T357 79Q432 79 470 109T509 191Q509 235 479 260T358 312ZM187 525Q187 490 214 467T310 424V620Q248 618 218 592T187 525Z" />
<glyph unicode="%" glyph-name="percent" horiz-adv-x="947" d="M192 379T235 379T300 415T323 515Q323 576 300 607T235 639T170 608T147 515Q147 452 169 416ZM310 307T235 307T115 361T70 516Q70 609 119 660T235 712Q302 712 351 661T401 516Q401 415 356
361ZM668 60T711 60T776 96T799 196Q799 257 776 288T711 320T646 289T623 196Q623 133 645 97ZM786 -12T711 -12T591 42T546 197Q546 290 595 341T711 393Q778 393 827 342T877 197Q877 96 832 42ZM188 -37L677 778L735 741L247 -73L188 -37Z" />
<glyph unicode="&amp;" glyph-name="ampersand" horiz-adv-x="707" d="M627 33L528 116Q509 67 451 26T301 -15Q195 -15 128 39T60 192Q60 320 196 403Q126 469 126 550Q126 623 179 669T314 715Q393 715 445 673T509 552L418 531Q397 627 313 627Q270 627 247
606T224 549Q224 504 279 456L461 298H463V408H551V221L687 104L627 33ZM458 182L261 351Q155 300 155 202Q155 143 196 110T303 77Q363 77 405 108T458 182Z" />
<glyph unicode="&apos;" glyph-name="quotesingle" horiz-adv-x="250" d="M90 469V700H160V469H90Z" />
<glyph unicode="(" glyph-name="parenleft" horiz-adv-x="381" d="M330 -154L279 -197Q262 -181 235 -144T170 -41T106 117T80 303Q80 383 98 460T141 588T197 686T247 752T279 786L331 742Q278 682 245 630T187 492T162 304Q162 171 210 53T330 -154Z" />
<glyph unicode=")" glyph-name="parenright" horiz-adv-x="381" d="M82 -197L31 -154Q103 -65 151 53T199 304Q199 407 174 492T116 629T30 742L82 786Q97 771 114 753T163 687T220 588T262 460T281 303Q281 209 255 117T191 -40T126 -143T82 -197Z" />
<glyph unicode="*" glyph-name="asterisk" horiz-adv-x="499" d="M89 382L179 491L60 561L99 627L211 562V700H288V562L401 628L439 561L320 491L411 382L353 332L249 458L147 331L89 382Z" />
<glyph unicode="+" glyph-name="plus" horiz-adv-x="580" d="M249 110V335H50V413H249V615H331V413H530V335H331V110H249Z" />
<glyph unicode="," glyph-name="comma" horiz-adv-x="307" d="M90 -116V-63Q119 -58 128 -44T138 0H90V124H217V15Q217 -107 90 -116Z" />
<glyph unicode="-" glyph-name="hyphen" horiz-adv-x="429" d="M50 295V378H379V295H50Z" />
<glyph unicode="." glyph-name="period" horiz-adv-x="307" d="M90 0V124H217V0H90Z" />
<glyph unicode="/" glyph-name="slash" horiz-adv-x="454" d="M15 -14L375 746L439 716L79 -42L15 -14Z" />
<glyph unicode="0" glyph-name="zero" horiz-adv-x="617" d="M308 -15Q186 -15 116 80T45 360Q45 532 117 623T308 715Q427 715 499 624T572 360Q572 176 502 81T308 -15ZM146 77T308 77T470 360Q470 622 308 622Q230 622 188 556T146 360Q146 77 308 77Z" />
<glyph unicode="1" glyph-name="one" horiz-adv-x="461" d="M216 0V586L65 491V600L226 700H311V0H216Z" />
<glyph unicode="2" glyph-name="two" horiz-adv-x="583" d="M59 0V75Q59 170 99 226Q134 275 256 339Q296 360 309 367T349 390T385 416T407 442T424 474T428 512Q428 556 394 590T295 625Q230 625 193 585T151 471L55 483Q60 593 126 654T298 715Q401 715 463
656T525 507Q525 470 513 438T485 384T439 341T390 307T333 276Q232 223 211 206Q195 193 186 178Q167 150 167 98H528V0H59Z" />
<glyph unicode="3" glyph-name="three" horiz-adv-x="592" d="M40 229L137 249Q148 160 186 118T299 75Q369 75 406 110T443 201Q443 265 402 297T289 330H249V413H277Q298 413 318 417T363 430T402 462T417 516Q417 567 384 596T295 625Q185 625 169 501L75 518Q85
609 145 662T297 715Q390 715 451 665T512 526Q512 468 484 433T415 382V380Q466 364 504 319T542 196Q542 105 475 45T300 -15Q191 -15 123 45T40 229Z" />
<glyph unicode="4" glyph-name="four" horiz-adv-x="572" d="M30 152V245L306 700H456V245H542V152H456V0H360V152H30ZM129 245H360V624H358L129 245Z" />
<glyph unicode="5" glyph-name="five" horiz-adv-x="595" d="M50 177L145 214Q182 76 305 76Q374 76 416 118T458 235Q458 307 417 348T309 389Q213 389 158 307L74 346L136 700H493V607H212L177 407L179 406Q232 468 332 468Q425 468 490 403T555 233Q555 119
485 52T305 -15Q206 -15 141 38T50 177Z" />
<glyph unicode="6" glyph-name="six" horiz-adv-x="631" d="M338 76Q408 76 447 118T486 231Q486 300 446 341T334 383Q267 383 224 340T180 238Q180 167 224 122T338 76ZM551 536L460 512Q430 625 328 625Q257 625 208 556T157 362L159 361Q178 396 228 430T356
464Q446 464 513 400T581 230Q581 116 512 51T338 -15Q217 -15 136 73T55 340Q55 503 132 609T332 715Q426 715 480 664T551 536Z" />
<glyph unicode="7" glyph-name="seven" horiz-adv-x="497" d="M32 0L364 604V606H15V700H467V596L146 0H32Z" />
<glyph unicode="8" glyph-name="eight" horiz-adv-x="574" d="M346 629T287 629T198 599T167 523T200 448T287 417T374 447T407 523T377 598ZM212 78T287 78T400 113T438 205Q438 264 397 300T287 336T177 300T136 205Q136 148 174 113ZM72 532Q72 607 131 661T287
715Q385 715 444 661T504 532Q504 430 417 382V380Q467 360 502 313T538 199Q538 98 469 42T287 -15T105 41T36 199Q36 265 71 312T157 380V382Q72 429 72 532Z" />
<glyph unicode="9" glyph-name="nine" horiz-adv-x="613" d="M73 160L164 191Q192 75 304 75Q459 75 458 334H455Q446 305 401 272T278 238Q181 238 113 303T45 476Q45 584 114 649T283 715Q403 715 478 624T553 348Q553 161 485 73T301 -15Q207 -15 150 34T73
160ZM289 326Q355 326 395 365T436 470Q436 537 394 581T284 625Q222 625 182 584T142 476Q142 408 182 367T289 326Z" />
<glyph unicode=":" glyph-name="colon" horiz-adv-x="307" d="M90 0V124H217V0H90ZM90 406V530H217V406H90Z" />
<glyph unicode=";" glyph-name="semicolon" horiz-adv-x="307" d="M90 406V530H217V406H90ZM90 -116V-63Q119 -58 128 -44T138 0H90V124H217V15Q217 -107 90 -116Z" />
<glyph unicode="&lt;" glyph-name="less" horiz-adv-x="534" d="M50 317V387L441 620L484 551L151 352L483 151L440 82L50 317Z" />
<glyph unicode="=" glyph-name="equal" horiz-adv-x="583" d="M60 242V322H523V242H60ZM60 415V495H523V415H60Z" />
<glyph unicode="&gt;" glyph-name="greater" horiz-adv-x="534" d="M474 387V317L84 82L41 151L373 352L40 551L83 620L474 387Z" />
<glyph unicode="?" glyph-name="question" horiz-adv-x="524" d="M188 202V249Q188 291 208 318T277 380Q339 425 355 444Q383 477 383 520Q383 561 354 592T264 623Q137 623 129 476L30 484Q32 585 92 650T266 715Q360 715 422 662T484 526Q484 491 477 464T451
416T419 382T376 349Q368 343 353 332T331 317T314 304T299 290T290 277T283 260T281 242V202H188ZM175 0V124H303V0H175Z" />
<glyph unicode="@" glyph-name="at" horiz-adv-x="734" d="M439 272V361H437Q431 348 395 338L343 324Q312 316 299 302T286 264Q286 208 364 208Q392 208 415 224T439 272ZM504 86L534 34Q462 -15 366 -15Q212 -15 131 84T50 346Q50 506 137 609T373 713Q520
713 602 613T684 357Q684 240 648 192T541 144Q479 144 458 190H456Q423 144 352 144Q294 144 256 176T218 260Q218 307 244 334T323 377L375 391Q412 401 425 409T438 438Q438 460 421 475T374 491Q338 491 321 475T294 424L231 438Q238 491 276 522T371 553Q428
553 466 519T504 425V244Q504 206 544 206Q585 206 604 242T623 354Q623 487 560 571T373 655Q249 655 180 569T111 346Q111 211 175 128T366 44Q438 44 504 86Z" />
<glyph unicode="A" glyph-name="A" horiz-adv-x="631" d="M510 0L464 129H164L119 0H15L268 700H364L616 0H510ZM313 556L194 215H434L315 556H313Z" />
<glyph unicode="B" glyph-name="B" horiz-adv-x="649" d="M90 0V700H368Q461 700 517 648T573 516Q573 421 487 378V376Q533 359 566 317T599 210Q599 0 347 0H90ZM190 409H352Q473 409 473 508Q473 556 441 581T351 607H190V409ZM190 92H331Q414 92 456 117T499
210Q499 274 459 298T333 323H190V92Z" />
<glyph unicode="C" glyph-name="C" horiz-adv-x="665" d="M349 -15Q289 -15 237 6T143 69T75 185T50 356Q50 527 137 621T349 715Q460 715 532 648T619 468L517 451Q490 621 349 621Q265 621 210 554T155 356Q155 217 209 148T349 79Q495 79 513 267L620 250Q610
128 538 57T349 -15Z" />
<glyph unicode="D" glyph-name="D" horiz-adv-x="662" d="M190 92H303Q401 92 455 151T509 351Q509 478 455 542T309 607H190V92ZM90 0V700H314Q374 700 427 679T523 617T591 508T617 351Q617 255 591 184T520 75T423 18T308 0H90Z" />
<glyph unicode="E" glyph-name="E" horiz-adv-x="583" d="M90 0V700H518V607H190V404H490V315H190V92H518V0H90Z" />
<glyph unicode="F" glyph-name="F" horiz-adv-x="564" d="M90 0V700H519V607H190V377H491V289H190V0H90Z" />
<glyph unicode="G" glyph-name="G" horiz-adv-x="667" d="M349 -15Q287 -15 235 6T140 71T74 187T50 358Q50 444 75 513T142 626T237 692T348 715Q452 715 524 651T613 482L511 464Q479 621 349 621Q266 621 210 554T154 358Q154 220 208 150T349 79Q429 79 474
127T519 261H358V350H617V274Q617 139 543 62T349 -15Z" />
<glyph unicode="H" glyph-name="H" horiz-adv-x="668" d="M90 0V700H190V405H478V700H578V0H478V318H190V0H90Z" />
<glyph unicode="I" glyph-name="I" horiz-adv-x="290" d="M95 0V700H195V0H95Z" />
<glyph unicode="J" glyph-name="J" horiz-adv-x="455" d="M20 150L118 179Q139 79 197 79Q236 79 253 102T270 176V700H370V179Q370 -15 197 -15Q124 -15 79 31T20 150Z" />
<glyph unicode="K" glyph-name="K" horiz-adv-x="608" d="M80 0V700H180V374H183L455 700H579L322 393L608 0H487L253 321H251L180 234V0H80Z" />
<glyph unicode="L" glyph-name="L" horiz-adv-x="514" d="M90 0V700H190V92H489V0H90Z" />
<glyph unicode="M" glyph-name="M" horiz-adv-x="862" d="M90 0V700H217L430 190H432L646 700H772V0H672V532H670L443 0H419L192 532H190V0H90Z" />
<glyph unicode="N" glyph-name="N" horiz-adv-x="687" d="M90 0V700H193L494 178H496V700H597V0H496L192 522H190V0H90Z" />
<glyph unicode="O" glyph-name="O" horiz-adv-x="695" d="M349 78Q434 78 487 146T540 353Q540 483 486 552T349 621Q265 621 210 554T155 356Q155 217 209 148T349 78ZM349 -15Q289 -15 237 6T143 69T75 185T50 356Q50 527 137 621T349 715Q471 715 558 620T645
353Q645 256 621 183T554 68T460 6T349 -15Z" />
<glyph unicode="P" glyph-name="P" horiz-adv-x="615" d="M90 0V700H364Q470 700 535 642T600 482T537 323T365 265H190V0H90ZM190 357H361Q420 357 458 389T497 482Q497 546 458 576T360 607H190V357Z" />
<glyph unicode="Q" glyph-name="Q" horiz-adv-x="695" d="M588 -16L525 46Q449 -15 349 -15Q289 -15 237 6T143 69T75 185T50 356Q50 527 137 621T349 715Q471 715 558 620T645 353Q645 199 576 102L642 37L588 -16ZM295 276L349 329L506 170Q540 235 540 353Q540
483 486 552T349 621Q265 621 210 554T155 356Q155 217 209 148T349 78Q416 78 459 112L295 276Z" />
<glyph unicode="R" glyph-name="R" horiz-adv-x="640" d="M90 0V700H364Q472 700 536 645T600 487Q600 398 558 350T436 285L589 0H479L331 277H190V0H90ZM190 366H356Q421 366 460 395T499 487Q499 609 355 609H190V366Z" />
<glyph unicode="S" glyph-name="S" horiz-adv-x="609" d="M45 239L150 260Q164 165 202 122T327 79Q398 79 436 109T475 186T440 260T285 325Q171 361 123 407T74 526Q74 604 135 659T300 715Q398 715 466 666T549 522L449 500Q436 558 402 589T300 621Q238 621
206 594T174 526Q174 489 206 467T350 407Q481 363 527 317T574 192Q574 103 508 44T326 -15Q202 -15 131 49T45 239Z" />
<glyph unicode="T" glyph-name="T" horiz-adv-x="565" d="M232 0V607H20V700H545V607H332V0H232Z" />
<glyph unicode="U" glyph-name="U" horiz-adv-x="657" d="M75 228V700H175V234Q175 159 213 119T328 79T443 118T482 232V700H582V228Q582 109 515 47T328 -15T142 47T75 228Z" />
<glyph unicode="V" glyph-name="V" horiz-adv-x="628" d="M263 0L15 700H121L316 137H318L508 700H613L369 0H263Z" />
<glyph unicode="W" glyph-name="W" horiz-adv-x="902" d="M171 0L40 700H142L242 165H244L413 700H490L660 165H662L762 700H862L731 0H619L451 530H449L284 0H171Z" />
<glyph unicode="X" glyph-name="X" horiz-adv-x="589" d="M20 0L237 369L42 700H155L301 436H303L445 700H556L359 356L569 0H456L295 289H293L130 0H20Z" />
<glyph unicode="Y" glyph-name="Y" horiz-adv-x="577" d="M239 0V295L10 700H118L287 387H289L459 700H567L337 295V0H239Z" />
<glyph unicode="Z" glyph-name="Z" horiz-adv-x="599" d="M50 0V87L422 603V605H66V700H549V612L175 97V95H544V0H50Z" />
<glyph unicode="[" glyph-name="bracketleft" horiz-adv-x="367" d="M80 -182V730H327V662H152V-115H327V-182H80Z" />
<glyph unicode="\" glyph-name="backslash" horiz-adv-x="454" d="M375 -42L15 716L79 746L439 -14L375 -42Z" />
<glyph unicode="]" glyph-name="bracketright" horiz-adv-x="367" d="M307 730V-182H60V-115H235V662H60V730H307Z" />
<glyph unicode="^" glyph-name="asciicircum" horiz-adv-x="550" d="M70 325L243 700H307L480 325H396L275 602L153 325H70Z" />
<glyph unicode="_" glyph-name="underscore" horiz-adv-x="622" d="M60 -145V-70H562V-145H60Z" />
<glyph unicode="`" glyph-name="grave" horiz-adv-x="293" d="M159 595L50 717H163L243 595H159Z" />
<glyph unicode="a" glyph-name="a" horiz-adv-x="540" d="M385 0V56H383Q372 34 332 10T227 -15Q136 -15 91 28T45 138Q45 205 85 242T223 303Q309 325 339 341T370 388T344 439T266 460Q167 460 143 360L58 390Q72 459 125 502T264 545Q357 545 413 498T470 350V0H385ZM245
232Q183 215 162 195T140 144Q140 71 236 71Q303 71 339 100T375 171V290H373Q369 281 361 275T324 257T245 232Z" />
<glyph unicode="b" glyph-name="b" horiz-adv-x="596" d="M177 331V189Q177 142 213 108T306 73Q378 73 416 123T454 265T416 406T306 456Q247 456 212 418T177 331ZM80 0V730H177V479H179Q236 545 323 545Q422 545 486 468T551 265Q551 137 489 61T321 -15Q229
-15 171 51H169V0H80Z" />
<glyph unicode="c" glyph-name="c" horiz-adv-x="553" d="M416 207L513 183Q499 91 440 38T287 -15Q180 -15 113 60T45 265Q45 396 115 470T288 545Q379 545 439 491T510 349L415 334Q407 387 376 421T288 456Q221 456 181 406T141 265T180 124T289 73Q345 73
376 111T416 207Z" />
<glyph unicode="d" glyph-name="d" horiz-adv-x="596" d="M419 189V331Q419 380 384 418T290 456Q219 456 181 407T142 265T180 123T290 73Q347 73 383 107T419 189ZM427 0V51H425Q367 -15 275 -15Q170 -15 108 61T45 265Q45 392 111 468T274 545Q360 545 417
479H419V730H516V0H427Z" />
<glyph unicode="e" glyph-name="e" horiz-adv-x="573" d="M440 169L513 114Q482 58 427 22T293 -15Q183 -15 114 61T45 265T113 468T288 545T461 470T528 265V236H144Q146 165 183 119T291 72Q324 72 349 81T393 108T420 138T440 169ZM145 312H431Q428 373 393
415T288 458Q221 458 184 413T145 312Z" />
<glyph unicode="f" glyph-name="f" horiz-adv-x="341" d="M103 0V445H25V530H105V608Q105 675 137 702T228 730H310V642H247Q219 642 209 631T199 587V530H331V445H201V0H103Z" />
<glyph unicode="g" glyph-name="g" horiz-adv-x="596" d="M84 -100L162 -55Q183 -102 213 -128T297 -154Q356 -154 390 -120T424 -22V47H422Q375 -15 280 -15Q176 -15 111 60T45 265Q45 392 112 468T279 545Q371 545 425 479H427V530H521V-5Q521 -120 461 -180T298
-240Q217 -240 162 -202T84 -100ZM424 186V334Q424 382 389 419T295 456Q223 456 183 406T142 265T182 124T295 73Q351 73 387 106T424 186Z" />
<glyph unicode="h" glyph-name="h" horiz-adv-x="590" d="M80 0V730H177V477H179Q199 506 239 525T326 545Q411 545 463 493T515 348V0H418V324Q418 384 389 419T303 455Q247 455 212 421T177 333V0H80Z" />
<glyph unicode="i" glyph-name="i" horiz-adv-x="265" d="M84 0V530H181V0H84ZM80 627V730H185V627H80Z" />
<glyph unicode="j" glyph-name="j" horiz-adv-x="262" d="M20 -195V-103H39Q61 -103 71 -92T82 -51V530H179V-59Q179 -130 150 -162T60 -195H20ZM77 627V730H182V627H77Z" />
<glyph unicode="k" glyph-name="k" horiz-adv-x="551" d="M80 0V730H177V295H179L393 530H519L327 318L541 0H429L254 260H252L177 179V0H80Z" />
<glyph unicode="l" glyph-name="l" horiz-adv-x="260" d="M80 0V730H180V0H80Z" />
<glyph unicode="m" glyph-name="m" horiz-adv-x="854" d="M80 0V530H168V479H170Q189 508 225 526T303 545Q350 545 385 524T440 470H442Q463 501 502 523T589 545Q677 545 728 495T779 361V0H687V336Q687 455 584 455Q533 455 505 425T477 343V0H385V336Q385
455 282 455Q229 455 202 424T175 343V0H80Z" />
<glyph unicode="n" glyph-name="n" horiz-adv-x="588" d="M80 0V530H175V479H177Q198 507 238 526T322 545Q409 545 461 492T513 347V0H415V319Q415 455 303 455Q246 455 212 423T177 333V0H80Z" />
<glyph unicode="o" glyph-name="o" horiz-adv-x="573" d="M288 73Q352 73 392 123T432 265Q432 355 392 405T288 456Q222 456 182 407T141 265T182 123T288 73ZM288 -15Q182 -15 114 59T45 265Q45 395 115 470T288 545Q389 545 458 470T528 265Q528 133 461 59T288 -15Z" />
<glyph unicode="p" glyph-name="p" horiz-adv-x="601" d="M177 334V186Q177 140 213 107T306 73Q378 73 418 123T459 265T419 406T306 456Q248 456 213 419T177 334ZM80 -225V530H173V479H175Q185 492 201 505T251 531T324 545Q421 545 488 469T556 265Q556 136
491 61T325 -15Q271 -15 233 7T179 51H177V-225H80Z" />
<glyph unicode="q" glyph-name="q" horiz-adv-x="601" d="M424 186V334Q424 382 389 419T295 456Q223 456 183 406T142 265T182 124T295 73Q351 73 387 106T424 186ZM424 -225V51H422Q369 -15 276 -15Q175 -15 110 60T45 265Q45 392 112 468T277 545Q332 545 370
524T426 479H428V530H521V-225H424Z" />
<glyph unicode="r" glyph-name="r" horiz-adv-x="356" d="M80 0V530H173V473H175Q191 504 221 521T284 539Q311 539 331 529L314 433Q295 441 273 441Q177 441 177 311V0H80Z" />
<glyph unicode="s" glyph-name="s" horiz-adv-x="517" d="M40 178L130 198Q145 68 267 68Q325 68 356 89T387 144Q387 179 358 196T237 240Q141 266 100 300T59 394Q59 455 109 500T248 545Q337 545 389 503T460 391L376 368Q345 463 249 463Q201 463 175 444T149
397Q149 367 176 352T302 309T438 244T476 143Q477 80 425 33T270 -15Q163 -15 106 40T40 178Z" />
<glyph unicode="t" glyph-name="t" horiz-adv-x="370" d="M103 166V445H25V530H105V660H198V530H330V445H199V176Q199 131 212 113T267 94H307V0H260Q174 0 139 41T103 166Z" />
<glyph unicode="u" glyph-name="u" horiz-adv-x="576" d="M75 186V530H172V199Q172 132 196 105T279 77Q334 77 366 110T399 204V530H496V0H402V51H400Q350 -15 257 -15Q169 -15 122 36T75 186Z" />
<glyph unicode="v" glyph-name="v" horiz-adv-x="547" d="M233 0L20 530H121L274 137H276L427 530H527L314 0H233Z" />
<glyph unicode="w" glyph-name="w" horiz-adv-x="790" d="M351 530H439L574 146H576L654 530H750L633 0H539L396 416H394L251 0H157L40 530H136L216 146H218L351 530Z" />
<glyph unicode="x" glyph-name="x" horiz-adv-x="525" d="M20 0L200 273L31 530H136L261 334H263L389 530H493L324 273L505 0H398L263 208H261L126 0H20Z" />
<glyph unicode="y" glyph-name="y" horiz-adv-x="521" d="M113 -225L215 37L15 530H117L262 151L406 530H506L208 -225H113Z" />
<glyph unicode="z" glyph-name="z" horiz-adv-x="546" d="M50 0V79L365 438V440H66V530H491V453L180 94V92H496V0H50Z" />
<glyph unicode="{" glyph-name="braceleft" horiz-adv-x="387" d="M131 -34V182Q131 214 119 227T78 240H50V329H78Q107 329 119 343T131 390V582Q131 667 166 698T273 730H327V660H269Q234 660 219 640T203 571V387Q203 359 194 338T172 307T150 292T133 285Q140
283 148 278T171 262T194 231T203 184V-23Q203 -72 219 -92T272 -112H327V-182H273Q202 -182 167 -151T131 -34Z" />
<glyph unicode="|" glyph-name="bar" horiz-adv-x="270" d="M100 -300V775H170V-300H100Z" />
<glyph unicode="}" glyph-name="braceright" horiz-adv-x="387" d="M226 182V-34Q226 -119 191 -150T84 -182H30V-112H85Q122 -112 138 -92T154 -23V184Q154 210 163 230T186 262T208 278T223 285Q215 287 207 291T185 306T163 338T154 387V571Q154 620 139 640T88
660H30V730H84Q155 730 190 699T226 582V390Q226 358 238 344T279 329H307V240H279Q250 240 238 227T226 182Z" />
<glyph unicode="~" glyph-name="asciitilde" horiz-adv-x="598" d="M189 381Q171 381 157 373T135 350T122 323T112 292L50 308Q61 375 97 418T191 462Q233 462 273 440T347 397T409 375Q427 375 441 383T463 406T476 433T486 464L548 448Q537 381 501 338T407
294Q365 294 325 316T250 359T189 381Z" />
</font>
</defs>
</svg>
