<svg>
<metadata>
<iconset grid="16"></iconset>
</metadata>
<defs>
<font id="clavius" horiz-adv-x="512" >
<font-face units-per-em="512" ascent="480" descent="-32" />
<missing-glyph horiz-adv-x="512" />
<glyph unicode="&#xe00d;" d="M 208,480l-192,0 C 7.2,480,0,472.8,0,464l0-192 C0,263.2, 7.2,256, 16,256l 192,0 C 216.8,256, 224,263.2, 224,272l0,192 C 224,472.8, 216.8,480, 208,480zM 496,480l-192,0 C 295.2,480, 288,472.8, 288,464l0-192 C 288,263.2, 295.2,256, 304,256l 192,0 C 504.8,256, 512,263.2, 512,272l0,192 C 512,472.8, 504.8,480, 496,480zM 208,192l-192,0 C 7.2,192,0,184.8,0,176l0-192 C0-24.8, 7.2-32, 16-32l 192,0 C 216.8-32, 224-24.8, 224-16l0,192 C 224,184.8, 216.8,192, 208,192zM 496,192l-192,0 C 295.2,192, 288,184.8, 288,176l0-192 C 288-24.8, 295.2-32, 304-32l 192,0 c 8.8,0, 16,7.2, 16,16l0,192 C 512,184.8, 504.8,192, 496,192z" />
<glyph unicode="&#xe00e;" d="M 273.067,206.933l0-238.933 l 238.933,0 L 512,206.933 L 273.067,206.933 z M 341.333,138.667l-34.133-136.533L 307.2,172.8 l 170.667,0 L 341.333,138.667zM0-32l 238.933,0 L 238.933,206.933 L0,206.933 L0-32 z M 34.133,172.8l 170.667,0 l-136.533-34.133l-34.133-136.533L 34.133,172.8 zM 375.467,480L 136.533,480 l0-238.933 l 238.933,0 L 375.467,480 z M 204.8,411.733L 170.667,275.2L 170.667,445.867 l 170.667,0 L 204.8,411.733z" />
<glyph unicode="&#xe00f;" d="M 398.222,480L 113.778,480 C 51.2,480,0,428.8,0,366.222l0-284.444 c0-62.578, 51.2-113.778, 113.778-113.778l 284.444,0 c 62.578,0, 113.778,51.2, 113.778,113.778L 512,366.222 C 512,428.8, 460.8,480, 398.222,480z M 398.222,195.556L 113.778,195.556 L 113.778,252.444 l 284.444,0 L 398.222,195.556 z" />
<glyph unicode="&#xe010;" d="M 512,70.473L 358.473,224L 511.854,377.381L 409.454,479.927L 255.927,326.4L 102.4,479.927L0,377.527L 153.527,224L0,70.473L 102.4-31.927L 256.073,121.6L 409.6-31.927 z" />
<glyph unicode="&#xe011;" d="M 256,480C 114.641,480,0,365.359,0,224S 114.641-32, 256-32S 512,82.641, 512,224S 397.359,480, 256,480z M 405.271,140.544L 339.456,74.729L 256,158.185
	L 172.544,74.729L 106.729,140.544L 190.185,224L 106.729,307.456l 65.815,65.815L 256,289.815l 83.456,83.456l 65.815-65.815L 321.815,224L 405.271,140.544z" />
<glyph unicode="&#xe001;" d="M 398.222,480L 113.778,480 C 51.2,480,0,428.8,0,366.222l0-284.444 c0-62.578, 51.2-113.778, 113.778-113.778l 284.444,0 c 62.578,0, 113.778,51.2, 113.778,113.778L 512,366.222 C 512,428.8, 460.8,480, 398.222,480z M 405.561,132.011l 10.012-10.012L 405.561,111.872
	L 365.227,71.652L 355.214,61.639L 345.088,71.652l-90.453,90.567L 164.124,71.652L 154.112,61.639L 143.986,71.652L 103.765,111.872L 93.639,121.998l 10.126,10.012
	l 90.453,90.567l-90.453,90.453L 93.639,323.1l 10.126,10.012l 40.22,40.334l 10.126,10.012l 10.012-10.012l 90.567-90.567l 90.453,90.567l 10.126,10.012
	L 365.227,373.447l 40.334-40.334l 10.012-10.012L 405.561,312.974l-90.567-90.453L 405.561,132.011z" />
<glyph unicode="&#xe01e;" d="M 256,480C 114.641,480,0,365.359,0,224S 114.641-32, 256-32S 512,82.641, 512,224S 397.359,480, 256,480z M 405.271,140.544L 339.456,74.729L 256,158.185
	L 172.544,74.729L 106.729,140.544L 190.185,224L 106.729,307.456l 65.815,65.815L 256,289.815l 83.456,83.456l 65.815-65.815L 321.815,224L 405.271,140.544z" />
<glyph unicode="&#xe01f;" d="M0,352l0-256 c0-60,0-128, 96-128l 128,0 c 72.256,0, 89.952,38.56, 94.368,83.264l 122.56,152.576c 10.24,12.736, 9.248,31.136-2.304,42.688
	c-3.936,3.936-25.184,23.552-55.808,23.552c-13.632,0-33.952-4.064-53.44-23.552L 288,205.12L 288,416 c0,17.568-14.432,32-32,32L 224,448 c0,17.568-14.432,32-32,32L 160,480
	C 142.368,480, 128,465.568, 128,448L 96,448 C 78.368,448, 64,433.568, 64,416l0-32 L 32,384 C 14.368,384,0,369.568,0,352z M 32,352l 32,0 l0-32 l0-96 l 32,0 L 96,384 L 96,416 l 32,0 l0-32 l0-160 l 32,0 L 160,416 L 160,448 l 32,0 l0-32 l0-192 l 32,0 L 224,352 L 224,384 L 224,416 l 32,0 l0-32 l0-32 l0-192 l 32,0 l0-0.128
	c0,0, 32,32, 64,64c 10.688,10.656, 21.312,14.176, 30.816,14.176C 401.76,238.048, 416,223.872, 416,223.872l-128-159.328L 288,64 L 287.424,64 C 285.632,21.568, 276.128,0, 224,0
	c-64,0-64,0-128,0s-64,32-64,96c0,47.744,0,166.624,0,224L 32,352 z" horiz-adv-x="448" />
<glyph unicode="&#xe020;" d="M 17.067,480C 7.68,480,0,472.286,0,462.933l0-477.867 C0-24.32, 7.68-32, 17.067-32l 477.867,0 c 9.318,0, 17.067,7.68, 17.067,17.067l0,477.867 C 512,472.286, 504.252,480, 494.933,480L 17.067,480
		z M 443.733,36.267L 68.267,36.267 L 68.267,411.733 l 375.467,0 L 443.733,36.267 zM 119.467,275.2L 136.533,275.2 l0-170.667 l 34.133,0 L 170.667,275.2 l 17.067,0 C 197.052,275.2, 204.8,282.88, 204.8,292.267C 204.8,301.619, 197.052,309.333, 187.733,309.333L 170.667,309.333 L 170.667,343.467 L 136.533,343.467 l0-34.133 L 119.467,309.333 C 110.080,309.333, 102.4,301.619, 102.4,292.267C 102.4,282.88, 110.080,275.2, 119.467,275.2
		zM 221.867,172.8L 238.933,172.8 l0-68.267 l 34.133,0 L 273.067,172.8 l 17.067,0 C 299.452,172.8, 307.2,180.48, 307.2,189.867C 307.2,199.219, 299.452,206.933, 290.133,206.933L 273.067,206.933 L 273.067,343.467 L 238.933,343.467 l0-136.533 L 221.867,206.933 C 212.48,206.933, 204.8,199.219, 204.8,189.867C 204.8,180.48, 212.48,172.8, 221.867,172.8
		zM 324.267,241.067L 341.333,241.067 l0-136.533 l 34.133,0 L 375.467,241.067 l 17.067,0 C 401.852,241.067, 409.6,248.747, 409.6,258.133C 409.6,267.486, 401.852,275.2, 392.533,275.2L 375.467,275.2 L 375.467,343.467 l-34.133,0 l0-68.267 L 324.267,275.2 C 314.88,275.2, 307.2,267.486, 307.2,258.133
		C 307.2,248.747, 314.88,241.067, 324.267,241.067z" />
<glyph unicode="&#xe021;" d="M 354.462,381.538L 196.923,480l0-78.769 L 118.154,401.231 C 53.012,401.231,0,348.219,0,283.077l0-118.154 c0-65.142, 53.012-118.154, 118.154-118.154l 78.769,0 l0,39.385 L 118.154,86.154 c-43.323,0-78.769,35.446-78.769,78.769L 39.385,283.077 c0,43.323, 35.446,78.769, 78.769,78.769l 78.769,0 l0-78.769 L 354.462,381.538zM 512,401.231l-78.769,0 l0-39.385 l 78.769,0 c 43.323,0, 78.769-35.446, 78.769-78.769l0-118.154 c0-43.323-35.446-78.769-78.769-78.769l-78.769,0 L 433.231,164.923 l-157.538-98.462l 157.538-98.462l0,78.769 l 78.769,0 c 65.142,0, 118.154,53.012, 118.154,118.154L 630.154,283.077 C 630.154,348.219, 577.142,401.231, 512,401.231z" horiz-adv-x="630.154" />
<glyph unicode="&#xe022;" d="M 416,416l-32,0 l0-64 l 32,0 c 17.632,0, 32-14.4, 32-32l0-192 c0-17.6-14.368-32-32-32L 288,96 l0,64 l-128-96l 128-96l0,64 l 128,0 c 52.928,0, 96,43.072, 96,96L 512,320 C 512,372.928, 468.928,416, 416,416zM 64,128L 64,320 c0,17.6, 14.432,32, 32,32l 128,0 l0-64 l 128,96L 224,480l0-64 L 96,416 C 43.072,416,0,372.928,0,320l0-192 c0-52.928, 43.072-96, 96-96l 32,0 l0,64 L 96,96 C 78.432,96, 64,110.4, 64,128z" />
<glyph unicode="&#xe002;" d="M 224,354.688L 224,384 L 192,378.176l0-224.832 C 182.56,157.472, 171.68,160, 160,160c-35.36,0-64-21.504-64-48S 124.64,64, 160,64c 11.68,0, 22.56,2.528, 32,6.656
		c 19.072,8.32, 32,23.616, 32,41.344L 224,290.688 C 288,290.688, 320,224, 320,192C 320,320, 256,354.688, 224,354.688zM 342.624,480L0,480 l0-512 l 448,0 L 448,374.624 L 342.624,480z M 352,425.376L 393.376,384L 352,384 L 352,425.376 z M 416,0L 32,0 L 32,448 l 288,0 l0-96 l 96,0 L 416,0 z" horiz-adv-x="448" />
<glyph unicode="&#xe02f;" d="M0,2.133L 102.4,2.133L 102.4-32L0-32zM0,70.4L 102.4,70.4L 102.4,36.267L0,36.267zM0,138.667L 102.4,138.667L 102.4,104.533L0,104.533zM0,206.933L 102.4,206.933L 102.4,172.8L0,172.8zM0,275.2L 102.4,275.2L 102.4,241.067L0,241.067zM 136.533,2.133L 238.933,2.133L 238.933-32L 136.533-32zM 136.533,70.4L 238.933,70.4L 238.933,36.267L 136.533,36.267zM 136.533,138.667L 238.933,138.667L 238.933,104.533L 136.533,104.533zM 136.533,206.933L 238.933,206.933L 238.933,172.8L 136.533,172.8zM 136.533,275.2L 238.933,275.2L 238.933,241.067L 136.533,241.067zM 136.533,343.467L 238.933,343.467L 238.933,309.333L 136.533,309.333zM 136.533,411.733L 238.933,411.733L 238.933,377.6L 136.533,377.6zM 136.533,480L 238.933,480L 238.933,445.867L 136.533,445.867zM 273.067,2.133L 375.467,2.133L 375.467-32L 273.067-32zM 273.067,70.4L 375.467,70.4L 375.467,36.267L 273.067,36.267zM 273.067,138.667L 375.467,138.667L 375.467,104.533L 273.067,104.533zM 273.067,206.933L 375.467,206.933L 375.467,172.8L 273.067,172.8zM 273.067,275.2L 375.467,275.2L 375.467,241.067L 273.067,241.067zM 273.067,343.467L 375.467,343.467L 375.467,309.333L 273.067,309.333zM 409.6,2.133L 512,2.133L 512-32L 409.6-32zM 409.6,70.4L 512,70.4L 512,36.267L 409.6,36.267zM 409.6,138.667L 512,138.667L 512,104.533L 409.6,104.533z" />
<glyph unicode="&#xe030;" d="M 186.182,61.091L 124.090-32L 620.637-32L 558.545,61.091 	zM 698.182,480L 46.545,480 C 20.899,480,0,459.055,0,433.455l0-418.909 c0-25.6, 20.899-46.545, 46.545-46.545l 21.644,0 l 93.091,139.636l 422.167,0 l 93.091-139.636L 698.182-32 c 25.553,0, 46.545,20.945, 46.545,46.545L 744.727,433.455 C 744.727,459.055, 723.735,480, 698.182,480z
		 M 209.455,200.727C 170.915,200.727, 139.636,231.959, 139.636,270.545C 139.636,309.085, 170.915,340.364, 209.455,340.364S 279.273,309.085, 279.273,270.545C 279.273,231.959, 247.994,200.727, 209.455,200.727z M 418.909,247.273L 325.818,247.273 L 325.818,293.818 l 93.091,0 L 418.909,247.273 z M 535.273,200.727
		C 496.733,200.727, 465.455,231.959, 465.455,270.545C 465.455,309.085, 496.733,340.364, 535.273,340.364S 605.091,309.085, 605.091,270.545C 605.091,231.959, 573.812,200.727, 535.273,200.727z M 651.636,386.909L 93.091,386.909 L 93.091,433.455 l 558.545,0 L 651.636,386.909 z" horiz-adv-x="744.727" />
<glyph unicode="&#xe031;" d="M0,480l0-512 l 512,0 L 512,384 l-32,0 L 480,416 l 32,0 L 512,480 L0,480 z M 160,224L 128,224 L 128,256 l 32,0 L 160,224 z M 288,0L 224,0 l0,128 l 64,0 L 288,0 z M 256,160c-35.328,0-64,28.64-64,64c0,35.328, 28.672,64, 64,64
		c 35.36,0, 64-28.672, 64-64C 320,188.64, 291.36,160, 256,160z M 448,352L 64,352 L 64,448 l 384,0 L 448,352 z" />
<glyph unicode="&#xe032;" d="M 310.112,303.232L 296.576,411.616C 283.488,414.432, 269.952,416, 256,416S 228.576,414.432, 215.424,411.616L 201.952,303.232C 217.312,313.792, 235.936,320, 256,320
		S 294.688,313.792, 310.112,303.232zM 160,224c0,2.688, 0.576,5.216, 0.8,7.872L 74.304,162.304c 8.928-26.208, 23.328-49.888, 41.888-69.632l 98.496,45.024
		C 182.496,153.216, 160,185.92, 160,224zM 351.2,231.872C 351.424,229.216, 352,226.688, 352,224c0-38.080-22.432-70.784-54.688-86.272l 98.496-45.024c 18.56,19.744, 32.992,43.392, 41.888,69.632
		L 351.2,231.872zM 256,480C 114.624,480,0,365.408,0,224c0-141.376, 114.624-256, 256-256s 256,114.624, 256,256C 512,365.408, 397.376,480, 256,480z M 256,0c-123.488,0-224,100.512-224,224
		c0,123.52, 100.512,224, 224,224s 224-100.48, 224-224C 480,100.512, 379.488,0, 256,0zM 192,224A64,64 180 1 1 320,224A64,64 180 1 1 192,224z" />
<glyph unicode="&#xe033;" d="M 448,480L 64,480 C 28.8,480,0,451.232,0,416l0-384 c0-35.2, 28.8-64, 64-64l 384,0 c 35.2,0, 64,28.8, 64,64L 512,416 C 512,451.232, 483.2,480, 448,480z M 256,0c-123.68,0-224,100.288-224,224
		s 100.32,224, 224,224c 123.744,0, 224-100.288, 224-224S 379.744,0, 256,0zM 256,320C 203.008,320, 160,276.992, 160,224c0-52.96, 43.008-96, 96-96c 53.056,0, 96,43.040, 96,96C 352,276.992, 309.056,320, 256,320z M 256,160c-35.264,0-64,28.704-64,64
		c0,35.328, 28.736,64, 64,64c 35.328,0, 64-28.672, 64-64C 320,188.704, 291.328,160, 256,160zM 366.88,289.632L 321.632,334.88L 370.752,384L 416,338.752zM 141.248,64L 96,109.248L 145.12,158.4L 190.368,113.12z" />
<glyph unicode="&#xe003;" d="M0,480l0-512 l 585.143,0 L 585.143,480 L0,480 z M 548.571,4.571L 109.714,4.571 L 109.714,443.429 l 438.857,0 L 548.571,4.571 zM 329.143,41.143c 101.010,0, 182.857,81.847, 182.857,182.857s-81.847,182.857-182.857,182.857S 146.286,325.010, 146.286,224S 228.133,41.143, 329.143,41.143z M 329.143,377.6c 84.699,0, 153.563-68.901, 153.563-153.6
		S 413.842,70.4, 329.143,70.4S 175.506,139.301, 175.506,224S 244.443,377.6, 329.143,377.6zM 292.571,224A36.571,36.571 180 1 1 365.714,224A36.571,36.571 180 1 1 292.571,224z" horiz-adv-x="585.143" />
<glyph unicode="&#xe040;" d="M 352.427,474.652l-147.342-108.885C 179.883,347.221, 159.346,335.787, 159.346,340.452c0,4.551-25.657,8.306-56.889,8.306L 56.889,348.757 c-31.346,0-56.889-25.657-56.889-56.889l0-125.099
		c0-31.346, 25.543-56.889, 56.889-56.889l 45.568,0 c 31.232,0, 56.889,1.308, 56.889,3.015s 20.537-12.231, 45.796-30.777l 147.342-108.772C 377.685-45.198, 398.222-34.901, 398.222-3.556l0,455.111
		C 398.222,482.788, 377.685,493.255, 352.427,474.652zM 739.556,280.889L 739.556,394.667L 625.778,394.667L 625.778,280.889L 512,280.889L 512,167.111L 625.778,167.111L 625.778,53.333L 739.556,53.333L 739.556,167.111L 853.333,167.111L 853.333,280.889 	z" horiz-adv-x="853.333" />
<glyph unicode="&#xe041;" d="M 375.694,483.925c-6.77,0-14.791-3.015-23.211-9.216l-147.342-108.885C 183.694,350.009, 165.547,339.484, 160.654,339.484L 159.346,340.508
		c0,4.551-25.657,8.306-56.889,8.306L 56.889,348.814 c-31.346,0-56.889-25.657-56.889-56.889l0-125.099 c0-31.346, 25.543-56.889, 56.889-56.889l 45.568,0 c 31.232,0, 56.889,1.308, 56.889,3.015L 159.46,113.010
		c 2.105,0, 21.788-13.312, 45.682-30.891l 147.342-108.772c 8.42-6.201, 16.441-9.216, 23.211-9.216C 389.12-35.925, 398.222-24.32, 398.222-3.499l0,455.111
		C 398.222,472.377, 389.12,483.925, 375.694,483.925zM 512,280.946L 853.333,280.946L 853.333,167.168L 512,167.168z" horiz-adv-x="853.333" />
<glyph unicode="&#xe042;" d="M 128.096,388.704l0-271.936 c-10.048,2.848-20.64,4.672-31.968,4.672c-52.928,0-95.904-34.336-95.904-76.672c0-42.4, 42.976-76.704, 95.904-76.704
	c 32.032,0, 60.192,12.672, 77.6,31.968C 185.152,12.608, 192.032,27.968, 192.032,44.736L 192.032,273.984 l 191.808,54.816l0-148.096 c-10.048,2.848-20.64,4.672-31.968,4.672
	c-52.928,0-95.904-34.336-95.904-76.672c0-42.4, 42.976-76.704, 95.904-76.704c 32.032,0, 60.192,12.672, 77.6,31.968c 11.424,12.64, 18.272,28, 18.272,44.768L 447.744,480 L 128.096,388.704z" horiz-adv-x="448" />
<glyph unicode="&#xe043;" d="M 219.429,433.591L 219.429,480 L 146.286,459.118l0-320.914 C 134.802,141.422, 122.661,143.543, 109.714,143.543c-60.562,0-109.714-39.278-109.714-87.735C0,7.278, 49.152-32, 109.714-32
	c 36.645,0, 68.864,14.482, 88.795,36.571C 211.566,19.017, 219.429,36.608, 219.429,55.771L 219.429,321.865 c 111.799,0, 182.857-111.799, 182.857-167.643C 402.286,377.71, 275.346,433.591, 219.429,433.591z" horiz-adv-x="402.286" />
<glyph unicode="&#xe044;" d="M 502.225,421.446L 502.225,479.255 l-45.661-8.332L 456.564,96.186 C 443.066,102.097, 427.66,105.681, 410.903,105.681c-50.409,0-91.322-30.673-91.322-68.468s 40.913-68.468, 91.322-68.468
		c 16.756,0, 32.209,3.584, 45.661,9.495c 27.229,11.869, 45.661,33.699, 45.661,58.973L 502.225,330.124 c 91.322,0, 149.411-91.322, 149.411-136.983C 651.636,375.785, 547.84,421.446, 502.225,421.446zM0,379.648L 319.581,379.648L 319.581,333.987L0,333.987zM0,288.326L 319.581,288.326L 319.581,242.665L0,242.665zM0,197.004L 319.581,197.004L 319.581,151.343L0,151.343zM0,105.681L 228.259,105.681L 228.259,60.067L0,60.067z" horiz-adv-x="651.636" />
<glyph unicode="&#xe004;" d="M 409.446,470.682l-204.646-46.541L 153.651,414.874l0-103.936 l0-200.038 C 138.547,117.453, 121.242,121.498, 102.502,121.498c-56.474,0-102.349-34.355-102.349-76.749s 45.824-76.749, 102.349-76.749
	c 18.79,0, 36.096,4.045, 51.149,10.65c 30.515,13.312, 51.149,37.734, 51.149,66.099L 204.8,320.205 l 204.646,46.438l0-153.498 C 394.394,219.802, 377.088,223.846, 358.298,223.846c-56.474,0-102.349-34.355-102.349-76.749
	s 45.824-76.749, 102.349-76.749c 18.79,0, 36.096,4.045, 51.149,10.65c 30.515,13.312, 51.149,37.734, 51.149,66.099L 460.646,375.962 L 460.646,480 L 409.446,470.682z" horiz-adv-x="460.8" />
<glyph unicode="&#xe051;" d="M 456.832,253.568c0,124.851-101.606,226.432-226.432,226.432C 105.549,480, 3.968,378.394, 3.968,253.568c0-119.296, 92.774-217.062, 209.894-225.613l0-43.366 c0-9.165, 7.398-16.589, 16.563-16.589
			c 9.139,0, 16.563,7.424, 16.563,16.589l0,43.366 C 364.058,36.506, 456.832,134.246, 456.832,253.568z M 246.963,61.082l0,130.765 c 27.315,7.347, 47.565,32.051, 47.565,61.722
			c0,35.379-28.723,64.128-64.128,64.128C 194.97,317.696, 166.272,288.947, 166.272,253.568c0-29.67, 20.224-54.4, 47.565-61.722l0-130.765
			C 114.97,69.555, 37.069,152.525, 37.069,253.568c0,106.547, 86.707,193.306, 193.331,193.306c 106.573,0, 193.306-86.733, 193.306-193.306
			C 423.706,152.525, 345.805,69.555, 246.963,61.082z" horiz-adv-x="460.8"  />
<glyph unicode="&#xe007;" d="M 186.565,383.705c 14.1,0, 25.679,11.599, 25.679,25.876c0,14.297-11.579,25.876-25.679,25.876c-14.297,0-25.876-11.579-25.876-25.876
			C 160.689,395.323, 172.268,383.705, 186.565,383.705zM 25.876,196.194c 14.1,0, 25.679,11.579, 25.679,25.876s-11.579,25.679-25.679,25.679C 11.599,247.749,0,236.367,0,222.070S 11.599,196.194, 25.876,196.194zM 106.023,150.41c 14.1,0, 25.679,11.599, 25.679,25.876c0,14.297-11.579,25.679-25.679,25.679c-14.297,0-25.876-11.402-25.876-25.679
			C 80.148,162.028, 91.727,150.41, 106.023,150.41zM 186.191,104.645c 14.1,0, 25.679,11.579, 25.679,25.876s-11.579,25.679-25.679,25.679c-14.297,0-25.876-11.402-25.876-25.679S 171.874,104.645, 186.191,104.645zM 345.698,65.241c-14.297,0-25.876-11.402-25.876-25.679c0-14.277, 11.579-25.876, 25.876-25.876c 14.1,0, 25.679,11.599, 25.679,25.876
			C 371.377,53.858, 359.818,65.241, 345.698,65.241zM 425.866,111.025c-14.297,0-25.876-11.402-25.876-25.679s 11.579-25.876, 25.876-25.876c 14.1,0, 25.679,11.579, 25.679,25.876S 439.966,111.025, 425.866,111.025zM 505.994,156.79c-14.277,0-25.876-11.402-25.876-25.679s 11.599-25.876, 25.876-25.876c 14.080,0, 25.698,11.579, 25.698,25.876S 520.094,156.79, 505.994,156.79zM 26.27,155.825c-14.277,0-25.876-11.579-25.876-25.876s 11.599-25.679, 25.876-25.679c 14.080,0, 25.679,11.402, 25.679,25.679S 40.369,155.825, 26.27,155.825zM 106.417,110.060c-14.277,0-25.876-11.599-25.876-25.876c0-14.297, 11.599-25.679, 25.876-25.679c 14.1,0, 25.679,11.402, 25.679,25.679
			C 132.096,98.462, 120.517,110.060, 106.417,110.060zM 186.565,64.276c-14.297,0-25.876-11.579-25.876-25.876s 11.579-25.876, 25.876-25.876c 14.1,0, 25.679,11.579, 25.679,25.876S 200.684,64.276, 186.565,64.276zM 283.904,11.579c-4.667,4.825-11.166,7.897-18.373,7.897c-14.297,0-25.876-11.579-25.876-25.679c0-7.483, 3.249-14.080, 8.31-18.786
			c 4.706-5.022, 11.323-8.251, 18.747-8.251c 14.1,0, 25.679,11.579, 25.679,25.876C 292.411,0.197, 289.044,6.853, 283.904,11.579zM 265.551,58.683c 3.564,0, 6.932,0.748, 10.043,2.068c 9.551,3.761, 16.463,13.036, 16.463,24.005c0,14.080-11.599,25.679-25.679,25.679
			c-3.623,0-7.050-0.748-10.181-2.107c-9.61-3.742-16.502-13.017-16.502-23.966C 239.675,70.282, 251.254,58.683, 265.551,58.683zM 345.698,156.022c-14.297,0-25.876-11.579-25.876-25.876c0-14.1, 11.579-25.679, 25.876-25.679c 14.1,0, 25.679,11.579, 25.679,25.679
			C 371.377,144.443, 359.818,156.022, 345.698,156.022zM 425.866,201.787c-14.297,0-25.876-11.599-25.876-25.876c0-14.1, 11.579-25.679, 25.876-25.679c 14.1,0, 25.679,11.579, 25.679,25.679
			C 451.545,190.208, 439.966,201.787, 425.866,201.787zM 27.431,343.946c-0.394,0-0.689-0.217-1.103-0.236c-0.020,0-0.039,0.020-0.059,0.020c-14.277,0-25.876-11.402-25.876-25.659
			c0-14.297, 11.599-25.895, 25.876-25.895c 0.217,0, 0.394,0.118, 0.551,0.118c 0.217,0, 0.394-0.118, 0.571-0.118c 14.297,0, 25.876,11.599, 25.876,25.895
			C 53.307,332.347, 41.708,343.946, 27.431,343.946zM 107.579,298.161c-14.297,0-25.679-11.579-25.679-25.876c0-14.277, 11.402-25.876, 25.679-25.876s 25.876,11.599, 25.876,25.876
			C 133.455,286.562, 121.876,298.161, 107.579,298.161zM 187.746,252.396c-14.297,0-25.679-11.579-25.679-25.876s 11.402-25.876, 25.679-25.876s 25.876,11.579, 25.876,25.876S 202.023,252.396, 187.746,252.396zM 267.874,206.612c-14.297,0-25.679-11.599-25.679-25.876c0-14.297, 11.402-25.895, 25.679-25.895c 14.277,0, 25.876,11.599, 25.876,25.895
			C 293.77,195.033, 282.151,206.612, 267.874,206.612zM 104.665,336.778c 7.227,0, 13.726,2.974, 18.412,7.759C 128.492,349.282, 132.096,356.037, 132.096,363.815c0,14.297-11.579,25.876-25.679,25.876
			c-7.207,0-13.706-2.974-18.412-7.739C 82.59,377.206, 78.986,370.452, 78.986,362.654C 78.986,348.377, 90.585,336.778, 104.665,336.778zM 184.812,291.013c 14.297,0, 25.876,11.579, 25.876,25.876s-11.579,25.876-25.876,25.876c-14.1,0-25.679-11.579-25.679-25.876S 170.713,291.013, 184.812,291.013zM 264.98,245.248c 14.297,0, 25.876,11.579, 25.876,25.876s-11.579,25.876-25.876,25.876c-14.1,0-25.679-11.579-25.679-25.876S 250.86,245.248, 264.98,245.248zM 345.127,199.463c 14.277,0, 25.876,11.579, 25.876,25.876s-11.599,25.876-25.876,25.876c-14.1,0-25.679-11.579-25.679-25.876S 331.028,199.463, 345.127,199.463zM 265.551,333.312c 14.1,0, 25.679,11.599, 25.679,25.876c0,14.1-11.579,25.679-25.679,25.679c-14.297,0-25.876-11.579-25.876-25.679
			C 239.675,344.891, 251.254,333.312, 265.551,333.312zM 345.698,339.121c-14.297,0-25.876-11.599-25.876-25.679c0-14.297, 11.579-25.876, 25.876-25.876c 14.1,0, 25.679,11.579, 25.679,25.876
			C 371.377,327.522, 359.818,339.121, 345.698,339.121zM 425.866,293.337c-14.297,0-25.876-11.579-25.876-25.659c0-14.297, 11.579-25.895, 25.876-25.895c 14.1,0, 25.679,11.599, 25.679,25.895
			C 451.545,281.738, 439.966,293.337, 425.866,293.337zM 505.994,247.552c-14.277,0-25.876-11.579-25.876-25.876c0-14.1, 11.599-25.679, 25.876-25.679c 14.080,0, 25.698,11.579, 25.698,25.679
			C 531.692,235.993, 520.094,247.552, 505.994,247.552zM 265.551,428.524c 7.227,0, 13.706,3.092, 18.393,7.936c 5.14,4.726, 8.468,11.382, 8.468,18.905c0,14.297-11.579,25.876-25.679,25.876
			c-7.463,0-14.041-3.23-18.767-8.271C 242.905,468.263, 239.675,461.666, 239.675,454.203C 239.675,440.103, 251.254,428.524, 265.551,428.524zM 345.698,434.314c-14.297,0-25.876-11.579-25.876-25.876c0-14.1, 11.579-25.679, 25.876-25.679c 14.1,0, 25.679,11.579, 25.679,25.679
			C 371.377,422.735, 359.818,434.314, 345.698,434.314zM 425.866,388.549c-14.297,0-25.876-11.599-25.876-25.876c0-14.297, 11.579-25.679, 25.876-25.679c 14.1,0, 25.679,11.402, 25.679,25.679
			C 451.545,376.95, 439.966,388.549, 425.866,388.549zM 505.994,291.21c 14.080,0, 25.698,11.402, 25.698,25.679S 520.094,342.764, 505.994,342.764c-14.277,0-25.876-11.579-25.876-25.876S 491.717,291.21, 505.994,291.21z" horiz-adv-x="531.692"  />
<glyph unicode="&#xe052;" d="M 285.207,318.534l 66.886,128.675c 5.609,11.008, 1.373,24.483-9.658,30.324c-11.008,5.609-24.483,1.35-30.324-9.658l-43.799-84.433
			c-5.841,21.783-9.891,37.492-11.45,43.567c-0.908,3.375-4.724,15.034-15.5,21.783c-13.475,8.076-27.183,15.709-39.983,22.691c-4.468,2.467-9.425,3.817-14.825,3.817
			c-4.049,0-9.868-0.675-14.569-3.584c-13.498-7.191-26.508-14.383-39.773-22.225c-7.401-4.492-13.475-12.125-16.175-21.551c-6.074-22.016-35.933-137.216-63.767-243.223
			c-19.084-73.425-37.050-142.383-45.126-173.359c-1.792-6.726-0.256-13.708, 4.049-19.316s 10.775-8.751, 17.734-8.751l 7.633,0 c 4.724-8.076, 13.033-15.034, 28.3-15.034
			c 14.173,0.465, 22.016,7.168, 26.531,14.825l 189.952,0 c 5.399-9.216, 13.917-14.15, 25.6-14.825c 0.233,0, 1.792-0.233, 2.257-0.233
			c 13.894,0, 21.993,7.168, 26.694,15.267l 7.401,0 c 6.726,0, 13.242,3.142, 17.524,8.541c 4.236,5.167, 5.841,12.125, 4.492,18.874
			C 364.265,15.616, 317.114,195.933, 285.207,318.534z M 308.806,24.809c-3.375,2.025-7.401,3.142-11.45,3.142L 75.497,27.951 c-4.259,0-8.076-1.117-11.473-3.142
			c-1.769,1.094-3.817,2.025-6.074,2.676c 9.216,35.956, 23.366,89.6, 37.958,145.734C 122.438,275.2, 151.18,385.466, 158.348,412.625c 9.216,5.399, 18.409,10.566, 28.067,15.942
			c 9.425-5.167, 18.874-10.333, 27.834-15.709c 4.724-18.409, 13.242-50.758, 23.133-88.925l-76.358-146.874c-5.609-11.008-1.35-24.483, 9.658-30.092
			c 3.375-1.792, 6.749-2.7, 10.333-2.7c 8.076,0, 15.965,4.492, 20.015,12.125l 53.225,102.633c 22.9-87.575, 48.5-185.484, 60.393-231.75
			C 312.39,26.833, 310.598,25.926, 308.806,24.809z" horiz-adv-x="372.364"  />
<glyph unicode="&#xe006;" d="M 464,384L 352,384 L 352,416 c0,64-32,64-64,64S 256,480, 192,480S 128,448, 128,416c0-12,0-15.008,0-14.048L 128,384 L 16,384 C 7.2,384,0,376.768,0,368l0-32 C0,327.2, 7.2,320, 16,320
		l 448,0 C 472.8,320, 480,327.2, 480,336l0,32 C 480,376.768, 472.8,384, 464,384z M 288,384L 192,384 L 192,416 l 96,0 L 288,384 zM 352,285.216L 352,48 c0-8.8-7.2-16-16-16S 320,39.2, 320,48L 320,285.216 L 320.576,288L 255.424,288 L 256,285.216L 256,48 C 256,39.2, 248.8,32, 240,32
		S 224,39.2, 224,48L 224,285.216 L 224.576,288L 159.424,288 L 160,285.216L 160,48 C 160,39.2, 152.8,32, 144,32S 128,39.2, 128,48L 128,285.216 L 128.576,288L 64,288 l0-304
		C 64-24.8, 71.2-32, 80-32l 320,0 c 8.8,0, 16,7.2, 16,16L 416,288 l-64.576,0 L 352,285.216z" horiz-adv-x="480" />
<glyph unicode="&#xe008;" d="M 397.892,96.478c-23.791,40.653-76.083,54.34-116.736,30.549c-4.062-2.731-9.079-3.686-13.858-2.697
	c-4.745,1.024-8.875,3.959-11.469,8.090L 243.78,153.071c 53.794,90.658, 113.323,191.010, 113.323,191.010C 382.43,387.396, 380.553,439.040, 357.444,480L 204.766,219.529
	L 52.087,480c-23.142-40.96-24.986-92.604, 0.341-135.919c0,0, 59.597-100.318, 113.391-191.010l-12.117-20.651c-2.526-4.13-6.724-7.066-11.469-8.090
	c-4.813-0.99-9.728-0.034-13.79,2.697c-40.721,23.791-93.013,10.138-116.804-30.549c-10.547-18.057-13.653-38.366-10.411-57.481
	c 4.13-23.996, 18.398-46.080, 40.994-59.29c 40.721-23.791, 93.013-10.138, 116.736,30.583c 0.273,0.444, 19.456,32.802, 45.807,77.141
	c 26.317-44.339, 45.534-76.698, 45.807-77.141c 23.723-40.687, 76.015-54.374, 116.736-30.583c 22.596,13.244, 36.932,35.294, 41.062,59.29
	C 411.648,58.112, 408.439,78.387, 397.892,96.478z M 131.174,31.898c-0.683-1.468-0.785-3.038-1.604-4.437c-14.336-24.405-45.739-32.563-70.076-18.33
	C 46.421,16.811, 37.444,29.781, 34.85,44.732c-2.082,12.015, 0.137,23.893, 6.281,34.441c 14.268,24.371, 45.67,32.529, 70.076,18.295
	c 5.53-3.209, 10.206-7.612, 14.131-12.527c 5.257-6.622, 9.079-14.438, 10.547-23.006C 137.557,51.49, 135.578,41.318, 131.174,31.898z M 350.037,9.131
	c-24.337-14.234-55.74-6.076-70.007,18.33c-0.785,1.399-0.99,2.97-1.673,4.437c-4.403,9.421-6.417,19.593-4.608,30.037
	c 1.468,8.567, 5.188,16.35, 10.547,23.006c 3.857,4.949, 8.533,9.318, 14.063,12.527c 24.405,14.234, 55.876,6.076, 70.076-18.295
	c 6.144-10.547, 8.329-22.426, 6.281-34.441C 372.087,29.781, 363.179,16.811, 350.037,9.131z" horiz-adv-x="409.6" />
<glyph unicode="&#xe009;" d="M 275.692,494.060L0,414.425l0-381.716 l 275.692-78.769l 275.692,78.769L 551.385,414.425 L 275.692,494.060z M 254.503,4.076l-212.126,60.613L 42.378,358.183 L 254.503,297.57L 254.503,4.076 z
	 M 74.201,393.236l 201.492,57.58l 201.492-57.58l-201.492-57.541L 74.201,393.236z M 509.007,64.689l-212.126-60.613L 296.881,297.57 L 509.007,358.183L 509.007,64.689 z" horiz-adv-x="551.385" />
<glyph unicode="&#xe00a;" d="M 416,160L 416,256 L 288,256 L 288,288 l 96,0 L 384,480 L 160,480 l0-192 l 96,0 l0-32 L 96,256 l0-96 L0,160 l0-192 l 224,0 l0,192 L 128,160 L 128,224 l 256,0 l0-64 L 288,160 l0-192 l 224,0 l0,192 L 416,160 z M 192,128l0-32 L 32,96 l0,32 L 192,128 z M 192,416L 192,448 l 160,0 l0-32 L 192,416 z M 480,96l-160,0 l0,32 l 160,0 L 480,96 z" />
<glyph unicode="&#xe00b;" d="M 465.681,144.333l-80.452-53.623l0-80.452 l 80.452-53.623L 546.133,10.257l0,80.452 L 465.681,144.333z M 465.681,39.919l-58.675,39.117l 58.675,39.117
		l 58.675-39.117L 465.681,39.919zM 516.881,328.823L 516.881,426.342 L 419.328,491.366L 321.809,426.342l0-97.519 l 97.519-64.99L 516.881,328.823z M 419.328,459.657l 71.134-47.411l-71.134-47.445
		l-71.066,47.445L 419.328,459.657zM0,237.005l0-168.277 l 168.209-112.128l 168.277,112.128l0,168.277 l-168.277,112.128L0,237.005z M 168.209,130.85L 45.602,212.702l 122.607,81.783l 122.675-81.783
		L 168.209,130.85z" horiz-adv-x="546.133" />
<glyph unicode="&#xe000;" d="M 590.117,480c-169.691,0-322.267-72.558-428.983-187.977L0,480l0-512 l 438.857,0 L 306.176,122.697C 391.461,249.6, 535.406,333.714, 699.831,333.714c 224.695,0, 412.599-156.16, 462.117-365.714L 1170.286-32
	C 1134.153,256.549, 888.539,480, 590.117,480z" horiz-adv-x="1170.286" />
<glyph unicode="&#xe00c;" d="M 1009.152,292.023C 902.437,407.442, 749.861,480, 580.023,480C 281.746,480, 35.986,256.549,0-32l 8.265,0 C 57.71,177.554, 245.541,333.714, 470.309,333.714
	c 164.425,0, 308.59-84.114, 393.728-211.017L 731.429-32l 438.857,0 L 1170.286,480 L 1009.152,292.023z" horiz-adv-x="1170.286" />
<glyph unicode="&#xe012;" d="M 512,224L 380.192,355.872L 380.192,256L 188.192,256L 188.192,192L 380.192,192L 380.192,92.192 	zM 252.192,32L 60.192,32L 60.192,416L 252.192,416L 252.192,320L 316.192,320L 316.192,480L0,480L0-32L 316.192-32L 316.192,128L 252.192,128 	z" />
<glyph unicode="&#xe013;" d="M 398.222,480L 113.778,480 C 51.2,480,0,428.8,0,366.222l0-284.444 c0-62.578, 51.2-113.778, 113.778-113.778l 284.444,0 c 62.578,0, 113.778,51.2, 113.778,113.778L 512,366.222 C 512,428.8, 460.8,480, 398.222,480z M 398.222,195.556L 284.444,195.556 l0-113.778 L 227.556,81.778 L 227.556,195.556 L 113.778,195.556 L 113.778,252.444 l 113.778,0 L 227.556,366.222 l 56.889,0 l0-113.778 l 113.778,0 L 398.222,195.556 z" />
<glyph unicode="&#xe014;" d="M 512,370.261L 402.318,479.943L 255.943,333.682L 109.682,479.943L0,370.261L 146.261,224L0,77.739L 109.682-31.943L 256.057,114.318L 402.318-31.943L 512,77.739L 365.739,224 z" />
<glyph unicode="&#xe015;" d="M 256,480C 114.649,480, 0.039,365.391, 0.039,224c0-141.351, 114.609-255.961, 255.961-255.961s 255.961,114.609, 255.961,255.961C 511.961,365.391, 397.312,480, 256,480
		z M 256,6.991C 136.35,6.991, 39.030,104.31, 39.030,224S 136.35,441.009, 256,441.009s 216.93-97.398, 216.93-217.009S 375.65,6.991, 256,6.991zM 325.908,349.086L 256,279.178L 186.053,349.086L 130.954,293.986L 200.862,224.039L 130.954,154.132L 186.053,98.993L 256,168.901L 325.908,98.993L 381.046,154.132L 311.138,224.039L 381.046,293.986 	z" />
<glyph unicode="&#xe016;" d="M 329.143,297.143L 256,297.143L 256,114.286L 182.857,114.286L 292.571-32L 402.286,114.286L 329.143,114.286 	zM 511.781,313.381L 512,315.429C 512,406.309, 438.345,480, 347.429,480C 286.354,480, 233.655,446.354, 205.202,396.946C 192.914,403.054, 179.273,406.857, 164.571,406.857
		C 114.066,406.857, 73.143,365.934, 73.143,315.429l 0.219-2.048C 29.769,288,0,241.262,0,187.429c0-80.457, 65.792-146.286, 146.286-146.286l0,36.571 c-60.489,0-109.714,49.225-109.714,109.714
		c0,38.363, 21.138,74.496, 55.223,94.354l 18.139,10.606L 109.934,313.381 L 109.714,317.221C 110.629,346.661, 134.912,370.286, 164.571,370.286c 8.082,0, 16.201-2.085, 24.283-6.071L 219.794,348.782
		L 236.946,378.697C 260.206,419.218, 301.495,443.429, 347.429,443.429c 69.851,0, 126.793-56.21, 128-125.769l-0.219-1.353L 475.209,292.389 l 18.139-10.606C 527.433,261.925, 548.571,225.792, 548.571,187.429
		c0-60.489-49.225-109.714-109.714-109.714l0-36.571 c 80.494,0, 146.286,65.829, 146.286,146.286C 585.143,241.262, 555.374,288, 511.781,313.381z" horiz-adv-x="585.143" />
<glyph unicode="&#xe017;" d="M 768,480c-80,0-161.024-81.536-216.768-152.64l 40.384-52.096C 657.856,362.944, 723.52,416, 768,416c 105.856,0, 192-86.144, 192-192s-86.144-192-192-192
	C 614.528,32, 449.152,480, 256,480C 114.624,480,0,365.376,0,224s 114.624-256, 256-256c 79.872,0, 160.896,81.344, 216.64,152.384L 432.128,172.352C 366.144,84.864, 300.48,32, 256,32
	C 150.144,32, 64,118.144, 64,224s 86.144,192, 192,192c 153.856,0, 317.888-448, 512-448c 141.376,0, 256,114.624, 256,256S 909.376,480, 768,480z" horiz-adv-x="1024" />
<glyph unicode="&#xe018;" d="M 128,138.667l 128,170.667L 194.816,309.333 C 224.256,360.064, 278.485,394.667, 341.333,394.667c 42.923,0, 81.664-16.469, 111.744-42.667l 109.739,0 C 518.485,428.459, 436.096,480, 341.333,480
		C 229.931,480, 135.509,408.704, 100.352,309.333L0,309.333 L 128,138.667zM 554.667,309.333l-128-170.667l 61.568,0 C 458.667,87.936, 404.267,53.333, 341.333,53.333c-42.923,0-81.579,16.341-111.403,42.667L 120.405,96 C 164.736,19.669, 246.741-32, 341.333-32
		c 111.403,0, 205.909,71.296, 241.152,170.667L 682.667,138.667 L 554.667,309.333z" horiz-adv-x="682.667" />
<glyph unicode="&#xe019;" d="M 276.165,21.484c-64.67,0-122.092,30.681-159.153,77.982L 220.908,168.783L 76.052,197.77L 37.73,205.371L 36.825,205.607l-36.825-184.084l 86.174,57.423C 129.772,21.681, 198.577-15.34, 276.165-15.34
		c 125.991,0, 228.982,97.398, 238.395,220.908l-36.825,0 C 468.401,102.538, 381.558,21.484, 276.165,21.484zM 465.211,369.093C 421.573,426.319, 352.807,463.34, 275.22,463.34C 149.228,463.34, 46.238,365.942, 36.825,242.432l 36.825,0 c 9.334,103.070, 96.138,184.084, 201.61,184.084
		c 64.67,0, 122.092-30.681, 159.153-77.982L 330.476,279.257l 144.935-28.987l 38.242-7.641L 514.56,242.432l 36.825,184.084L 465.211,369.093z" horiz-adv-x="551.385" />
<glyph unicode="&#xe01a;" d="M 256,224A36.571,36.571 180 1 1 329.143,224A36.571,36.571 180 1 1 256,224zM 518.802,343.698C 475.794,424.777, 390.729,480, 292.571,480C 176.64,480, 79.214,402.798, 47.799,297.143l 38.29,0 C 116.224,382.208, 197.303,443.429, 292.571,443.429
		c 82.578,0, 154.514-45.861, 192-113.371L 402.286,297.143l 146.286-73.143l 36.571,146.286L 518.802,343.698zM 292.571,4.571c-82.505,0-154.514,45.861-191.927,113.371L 182.857,150.857L 36.571,224l-36.571-146.286l 66.341,26.587C 109.349,23.223, 194.487-32, 292.571-32c 115.931,0, 213.358,77.202, 244.846,182.857
		l-38.29,0 C 468.919,65.792, 387.913,4.571, 292.571,4.571z" horiz-adv-x="585.143" />
<glyph unicode="&#xe01b;" d="M 640,394.667l-42.667,0 c0,47.104-38.229,85.333-85.333,85.333L 170.667,480 C 123.563,480, 85.333,441.771, 85.333,394.667L 42.667,394.667 C 19.157,394.667,0,375.467,0,352l0-256 c0-23.467, 19.157-42.667, 42.667-42.667l 42.667,0 c0-47.104, 38.229-85.333, 85.333-85.333l 341.333,0
		c 47.104,0, 85.333,38.229, 85.333,85.333l 42.667,0 c 23.424,0, 42.667,19.2, 42.667,42.667L 682.667,352 C 682.667,375.467, 663.424,394.667, 640,394.667z M 85.333,96L 42.667,96 L 42.667,352 l 42.667,0 L 85.333,96 z M 554.667,53.333c0-23.467-19.243-42.667-42.667-42.667L 170.667,10.667
		c-23.509,0-42.667,19.2-42.667,42.667L 128,394.667 c0,23.467, 19.157,42.667, 42.667,42.667l 341.333,0 c 23.424,0, 42.667-19.2, 42.667-42.667L 554.667,53.333 z M 640,96l-42.667,0 L 597.333,352 l 42.667,0 L 640,96 zM 256,145.749L 213.333,145.749 c-23.595,0-42.667-19.072-42.667-42.667s 19.072-42.667, 42.667-42.667l 42.667,0 c 23.595,0, 42.667,19.072, 42.667,42.667l0,179.2 l 128,25.6l0-119.467 L 384,188.416 c-23.595,0-42.667-19.072-42.667-42.667s 19.072-42.667, 42.667-42.667l 42.667,0
		c 23.595,0, 42.667,19.072, 42.667,42.667l0,256 l-213.333-42.667L 256,145.749 z" horiz-adv-x="682.667" />
<glyph unicode="&#xe01c;" d="M 96,24.96L 96-32 l 128,0 l0,56.96 C 207.008,9.632, 184.672,0, 160,0S 112.992,9.632, 96,24.96zM 240,352L 288,352 L 288,384 L 240,384 C 231.2,384, 224,391.2, 224,400S 231.2,416, 240,416l 42.048,0 C 268.736,453.12, 233.568,480, 192,480L 96,480 C 54.496,480, 19.264,453.12, 5.952,416L 144,416
		C 152.8,416, 160,408.8, 160,400S 152.8,384, 144,384L0,384 l0-32 l 144,0 C 152.8,352, 160,344.8, 160,336S 152.8,320, 144,320L0,320 l0-32 l 144,0 C 152.8,288, 160,280.8, 160,272S 152.8,256, 144,256L0,256
		l0-64 c0-41.76, 27.2-77.12, 64.576-90.24C 67.616,151.968, 109.056,192, 160,192c 45.12,0, 82.816-31.36, 93.056-73.376C 274.176,136.256, 288,162.432, 288,192L 288,256 L 240,256
		C 231.2,256, 224,263.2, 224,272S 231.2,288, 240,288L 288,288 L 288,320 L 240,320 C 231.2,320, 224,327.2, 224,336S 231.2,352, 240,352zM 96,96A64,64 180 1 1 224,96A64,64 180 1 1 96,96z" horiz-adv-x="288" />
<glyph unicode="&#xe01d;" d="M 160,160c 35.2,0, 64,28.8, 64,64L 224,416 c0,35.2-28.8,64-64,64S 96,451.2, 96,416l0-192 C 96,188.8, 124.8,160, 160,160zM 320,224L 320,288 L 288,288 l0-64 c0-70.624-57.376-128-128-128c-70.56,0-128,57.376-128,128L 32,288 L0,288 l0-64 c0-77.44, 55.008-141.952, 128-156.8L 128,32 l-96-32l0-32 l 256,0 l0,32 l-96,32l0,35.2
		C 265.056,82.048, 320,146.56, 320,224z" horiz-adv-x="320" />
<glyph unicode="&#xe023;" d="M 416,233.344c0,114.88-93.12,208-208,208c-114.944,0-208-93.12-208-208s 93.056-208, 208-208C 322.88,25.344, 416,118.464, 416,233.344z
		 M 208,57.344c-97.056,0-176,78.944-176,176s 78.944,176, 176,176s 176-78.944, 176-176S 305.056,57.344, 208,57.344zM 160,233.344A48,48 180 1 1 256,233.344A48,48 180 1 1 160,233.344zM 498.752,448L 480,448 L 480,480 l-32,0 l0-32 l-18.816,0 C 421.952,448, 416,442.048, 416,434.784l0-69.568 C 416,357.952, 421.952,352, 429.184,352L 448,352 l0-240.064 l-58.176-58.112
		l-11.328,11.328l-47.2-56.64c-6.24-6.208-6.24-7.008,0-13.216l 22.624-22.624c 6.176-6.208, 16.384-6.208, 22.624,0l 47.2,47.2
		l-11.328,11.328l 58.176,58.176c 5.12,5.12, 9.376,15.328, 9.376,22.56L 479.968,352 l 18.752,0 C 506.048,352, 512,357.952, 512,365.216L 512,434.784
		C 512,442.048, 506.048,448, 498.752,448z" />
<glyph unicode="&#xe024;" d="M 448,480L0,480 l0-448 l 448,0 L 448,480 z M 351.328,182.016c-9.44-12.672-27.008-21.312-47.36-21.312c-30.176,0-54.624,18.816-54.624,41.984
		s 24.448,41.984, 54.624,41.984C 309.568,244.672, 314.88,243.84, 320,242.624L 320,347.136 L 192,318.048l0-169.76 l0-0.16 l0-24.352 c-6.816-17.216-27.36-29.824-52.064-29.824
		c-30.176,0-54.624,18.816-54.624,41.984S 109.76,177.984, 139.936,177.984c 7.136,0, 13.824-1.088, 20.064-3.008l0,202.24 l 32,5.824l 128,29.12l 31.328,5.696
		L 351.328,182.016 zM 480,416L 480,0L 64,0L 64-32L 512-32L 512,416 	z" />
<glyph unicode="&#xe025;" d="M 102.673,2.202L 136.875,2.202L 136.875-32L 102.673-32zM 102.673,104.841L 136.875,104.841L 136.875,70.605L 102.673,70.605zM 34.202,104.841L 102.673,104.841L 102.673,139.042L0,139.042L0-32L 34.202-32L 34.202,36.403L 68.471,36.403L 68.471,2.202L 102.673,2.202L 102.673,70.605L 34.202,70.605 	zM 170.667-32L 273.34-32L 273.34,2.202L 204.868,2.202L 204.868,36.403L 273.34,36.403L 273.34,70.605L 204.868,70.605L 204.868,104.841L 273.34,104.841L 273.34,139.042L 170.667,139.042 	zM 443.665,36.403L 477.867,36.403L 477.867,2.202L 443.665,2.202zM 443.665,104.841L 477.867,104.841L 477.867,70.605L 443.665,70.605zM 341.060,104.841L 375.262,104.841L 375.262,2.202L 341.060,2.202zM 375.262,139.042L 443.665,139.042L 443.665,104.841L 375.262,104.841zM 375.262,2.202L 443.665,2.202L 443.665-32L 375.262-32zM 102.4,343.467A136.533,136.533 180 1 1 375.467,343.467A136.533,136.533 180 1 1 102.4,343.467z" horiz-adv-x="477.867" />
<glyph unicode="&#xe026;" d="M 768,480L 51.2,480 C 23.091,480,0,456.96,0,428.8l0-409.6 c0-28.16, 23.091-51.2, 51.2-51.2l 716.8,0 c 28.211,0, 51.2,23.040, 51.2,51.2L 819.2,428.8 C 819.2,456.96, 796.211,480, 768,480z M 358.4,326.4L 153.6,326.4 l0-102.4 l 102.4,0 l0-51.2 L 153.6,172.8 l0-102.4 L 102.4,70.4 L 102.4,377.6 l 256,0
		L 358.4,326.4 z M 727.091,337.152L 613.888,224l 113.203-113.152L 727.091,60.16 l-50.688,0 L 563.2,173.312L 450.099,60.16l-50.688,0 L 399.411,110.848 L 512.512,224L 399.411,337.152L 399.411,387.84 l 50.688,0 L 563.2,274.688l 113.203,113.152l 50.688,0
		L 727.091,337.152 z" horiz-adv-x="819.2" />
<glyph unicode="&#xe027;" d="M 256,480C 114.586,480,0,365.346,0,224C0,82.586, 114.586-32, 256-32S 512,82.586, 512,224C 512,365.346, 397.414,480, 256,480z M 34.133,224
	C 34.133,346.334, 133.666,445.867, 256,445.867c 63.659,0, 121.071-27.136, 161.587-70.315L 341.333,299.332L 341.333,358.212 c0,18.739-12.322,24.986-27.477,13.858l-88.405-65.331
	C 210.33,295.612, 197.939,288.717, 197.939,291.55c0,2.731-15.326,4.983-34.133,4.983L 136.533,296.533 c-18.807,0-34.133-15.394-34.133-34.133l0-75.059 c0-18.807, 15.326-34.133, 34.133-34.133l 27.273,0
	c 16.589,0, 29.798,0.649, 32.87,1.468l-92.194-92.262C 61.269,102.929, 34.133,160.273, 34.133,224z M 256,2.133c-46.319,0-89.327,14.302-124.928,38.673l 95.13,95.13
	l 87.654-64.683C 329.011,60.126, 341.333,66.338, 341.333,85.146L 341.333,251.068 l 97.86,97.86C 463.599,313.327, 477.867,270.285, 477.867,224C 477.867,101.666, 378.334,2.133, 256,2.133z" />
<glyph unicode="&#xe028;" d="M 395.264,448.199c0,30.777-20.252,41.017-45.113,22.756l-145.124-107.292C 180.167,345.458, 159.915,334.137, 159.915,338.745c0,4.494-25.259,8.192-56.036,8.192L 58.994,346.88
	c-30.891,0-56.036-25.259-56.036-56.036l0-123.221 c0-30.891, 25.145-56.036, 56.036-56.036l 44.885,0 c 30.777,0, 56.036,1.308, 56.036,2.958s 20.252-12.060, 45.113-30.322l 145.124-107.179
	C 375.012-41.216, 395.264-30.976, 395.264-0.085L 395.264,448.199 z" horiz-adv-x="398.222" />
<glyph unicode="&#xe029;" d="M 352.427,474.652l-147.342-108.885C 179.883,347.221, 159.346,335.787, 159.346,340.452c0,4.551-25.657,8.306-56.889,8.306L 56.889,348.757 c-31.346,0-56.889-25.657-56.889-56.889l0-125.099
		c0-31.346, 25.543-56.889, 56.889-56.889l 45.568,0 c 31.232,0, 56.889,1.308, 56.889,3.015s 20.537-12.231, 45.796-30.777l 147.342-108.772C 377.685-45.198, 398.222-34.901, 398.222-3.556l0,455.111
		C 398.222,482.788, 377.685,493.255, 352.427,474.652zM 527.758,321.792L 486.343,281.23C 501.419,270.99, 512,254.549, 512,234.98C 512,215.353, 501.419,198.912, 486.343,188.672l 41.472-40.562
		C 552.676,168.988, 568.889,199.993, 568.889,234.98S 552.676,300.914, 527.758,321.792z" horiz-adv-x="568.889" />
<glyph unicode="&#xe02a;" d="M 288.349,420.049l-120.553-89.088C 147.177,315.788, 130.374,306.432, 130.374,310.249c0,3.724-20.992,6.796-46.545,6.796L 46.545,317.044 c-25.647,0-46.545-20.992-46.545-46.545l0-102.353
		c0-25.647, 20.899-46.545, 46.545-46.545l 37.283,0 c 25.553,0, 46.545,1.071, 46.545,2.467s 16.803-10.007, 37.469-25.181l 120.553-88.995C 309.015-5.236, 325.818,3.142, 325.818,28.788l0,372.364
		C 325.818,426.705, 309.015,435.223, 288.349,420.049zM 397.917,261.795C 410.252,253.417, 418.909,239.965, 418.909,223.953c0-16.105-8.657-29.556-20.992-37.888l 33.932-33.187C 452.189,170.007, 465.455,195.375, 465.455,223.953
		S 452.189,277.946, 431.802,295.028L 397.917,261.795zM 531.828,392.681l-33.373-32.628C 535.18,326.074, 558.545,277.946, 558.545,223.953S 535.18,121.879, 498.455,87.901l 33.373-32.628
		C 576.745,97.722, 605.091,157.347, 605.091,223.953C 605.091,290.513, 576.745,350.231, 531.828,392.681zM 631.994,490.519l-33.373-32.628C 659.921,398.592, 698.182,315.695, 698.182,223.953c0-91.834-38.26-174.639-99.561-233.891l 33.373-32.628
		C 701.44,25.065, 744.727,119.412, 744.727,223.953S 701.44,422.889, 631.994,490.519z" horiz-adv-x="744.727" />
<glyph unicode="&#xe02b;" d="M 430.976,255.296L 298.56,332.544c-29.568,17.216-77.888,45.44-107.584,62.72L 53.696,472.512C 24.192,489.856,-4.864,475.968,-4.864,441.664l0-435.456
	c0-34.176, 29.056-48.064, 58.56-30.848L 188.544,52.608c 29.696,17.216, 79.168,45.44, 108.736,62.72L 430.336,192.576C 459.904,209.856, 460.48,238.080, 430.976,255.296z" horiz-adv-x="448" />
<glyph unicode="&#xe02c;" d="M 665.728,459.712L 546.368,386.496c-28.032-16.32-79.168-43.072-107.136-59.456L 409.088,312.512l0,117.952 c0,32.512-14.528,45.568-42.56,29.248
	L 245.056,386.496c-28.032-16.32-71.808-43.072-99.776-59.456L 20.8,253.76c-28.16-16.32-27.52-43.072, 0.448-59.456l 125.952-73.28
	c 28.032-16.32, 73.984-43.072, 102.016-59.456l 117.12-73.28c 28.16-16.32, 42.624-3.136, 42.624,29.248l0,117.952 l 33.28-14.528
	c 28.16-16.32, 78.080-43.072, 106.112-59.456l 115.072-73.28c 28.16-16.32, 40.448-3.136, 40.448,29.248l0,412.928 C 704,462.976, 693.76,476.096, 665.728,459.712z" horiz-adv-x="704" />
<glyph unicode="&#xe02d;" d="M 112,480l-96,0 C 7.2,480,0,472.8,0,464l0-96 C0,359.2, 7.2,352, 16,352l 96,0 C 120.8,352, 128,359.2, 128,368l0,96 C 128,472.8, 120.8,480, 112,480zM 112,288l-96,0 C 7.2,288,0,280.8,0,272l0-96 C0,167.2, 7.2,160, 16,160l 96,0 C 120.8,160, 128,167.2, 128,176l0,96 C 128,280.8, 120.8,288, 112,288zM 112,96l-96,0 C 7.2,96,0,88.8,0,80l0-96 C0-24.8, 7.2-32, 16-32l 96,0 C 120.8-32, 128-24.8, 128-16l0,96 C 128,88.8, 120.8,96, 112,96z
		M 304,480l-96,0 C 199.2,480, 192,472.8, 192,464l0-96 C 192,359.2, 199.2,352, 208,352l 96,0 C 312.8,352, 320,359.2, 320,368l0,96 C 320,472.8, 312.8,480, 304,480zM 304,288l-96,0 C 199.2,288, 192,280.8, 192,272l0-96 C 192,167.2, 199.2,160, 208,160l 96,0 C 312.8,160, 320,167.2, 320,176l0,96 C 320,280.8, 312.8,288, 304,288zM 304,96l-96,0 C 199.2,96, 192,88.8, 192,80l0-96 C 192-24.8, 199.2-32, 208-32l 96,0 c 8.8,0, 16,7.2, 16,16l0,96
		C 320,88.8, 312.8,96, 304,96zM 496,480l-96,0 C 391.2,480, 384,472.8, 384,464l0-96 C 384,359.2, 391.2,352, 400,352l 96,0 C 504.8,352, 512,359.2, 512,368l0,96 C 512,472.8, 504.8,480, 496,480z
		M 496,288l-96,0 C 391.2,288, 384,280.8, 384,272l0-96 c0-8.8, 7.2-16, 16-16l 96,0 c 8.8,0, 16,7.2, 16,16l0,96
		C 512,280.8, 504.8,288, 496,288zM 496,96l-96,0 c-8.8,0-16-7.2-16-16l0-96 c0-8.8, 7.2-16, 16-16l 96,0 c 8.8,0, 16,7.2, 16,16l0,96
		C 512,88.8, 504.8,96, 496,96z" />
<glyph unicode="&#xe02e;" d="M 469.333,480L 42.667,480 C 19.157,480,0,460.757,0,437.333l0-426.667 c0-23.509, 19.157-42.667, 42.667-42.667l 426.667,0 c 23.424,0, 42.667,19.157, 42.667,42.667L 512,437.333 C 512,460.757, 492.757,480, 469.333,480z M 426.667,113.664L 366.336,53.333
	L 256,163.669L 145.664,53.333L 85.333,113.664L 195.669,224L 82.347,337.323L 142.677,397.653L 256,284.331L 369.323,397.653l 60.331-60.331L 316.331,224L 426.667,113.664z" />
<glyph unicode="&#xe034;" d="M 224,256c-53.056,0-96-43.008-96-96s 42.944-96, 96-96s 96,43.008, 96,96S 277.056,256, 224,256z M 285.76,144C 278.624,171.552, 253.824,192, 224,192
		c-29.76,0-54.56-20.448-61.76-48C 160.928,149.12, 160,154.432, 160,160c0,35.36, 28.672,64, 64,64c 35.36,0, 64-28.64, 64-64C 288,154.432, 287.072,149.12, 285.76,144
		zM 384,480L 64,480 C 28.8,480,0,451.2,0,416l0-384 c0-35.2, 28.8-64, 64-64l 320,0 c 35.2,0, 64,28.8, 64,64L 448,416 C 448,451.2, 419.2,480, 384,480z M 224,448c 35.36,0, 64-28.64, 64-64
		S 259.36,320, 224,320C 188.672,320, 160,348.64, 160,384S 188.672,448, 224,448z M 48-8c-13.248,0-24,10.752-24,24s 10.752,24, 24,24
		s 24-10.752, 24-24S 61.248-8, 48-8z M 48,408c-13.248,0-24,10.752-24,24S 34.752,456, 48,456S 72,445.248, 72,432
		S 61.248,408, 48,408z M 224,16c-79.36,0-144,64.608-144,144S 144.64,304, 224,304c 79.424,0, 144-64.608, 144-144S 303.424,16, 224,16z
		 M 400-8c-13.248,0-24,10.752-24,24s 10.752,24, 24,24s 24-10.752, 24-24S 413.248-8, 400-8z M 400,408
		c-13.248,0-24,10.752-24,24s 10.752,24, 24,24s 24-10.752, 24-24S 413.248,408, 400,408zM 192,384A32,32 180 1 1 256,384A32,32 180 1 1 192,384z" horiz-adv-x="448" />
<glyph unicode="&#xe03f;" d="M0,480l0-512 l 585.143,0 L 585.143,480 L0,480 z M 548.571,4.571L 109.714,4.571 L 109.714,443.429 l 438.857,0 L 548.571,4.571 zM 233.874,41.143c 28.197,0, 51.712,14.409, 59.502,34.085l0,27.831 l0,0.183 L 293.376,297.216 l 146.286,33.207l0-119.442 c-5.851,1.39-11.922,2.341-18.359,2.341
		c-34.487,0-62.427-21.504-62.427-47.982s 27.941-47.982, 62.427-47.982c 23.296,0, 43.374,9.874, 54.126,24.357L 475.429,411.282 l-35.803-6.51l-146.286-33.28l-36.571-6.656
		l0-231.131 c-7.131,2.194-14.775,3.438-22.93,3.438c-34.487,0-62.427-21.504-62.427-47.982S 199.351,41.143, 233.874,41.143z" horiz-adv-x="585.143" />
<glyph unicode="&#xe050;" d="M 120.471,480L 30.118,480 C 13.553,480,0,466.447,0,449.882l0-90.353 c0-16.565, 13.553-30.118, 30.118-30.118l 90.353,0 c 16.565,0, 30.118,13.553, 30.118,30.118L 150.588,449.882 C 150.588,466.447, 137.035,480, 120.471,480z M 120.471,359.529L 30.118,359.529 L 30.118,449.882 l 90.353,0 L 120.471,359.529 zM 120.471,299.294L 30.118,299.294 C 13.553,299.294,0,285.741,0,269.176l0-90.353 c0-16.565, 13.553-30.118, 30.118-30.118l 90.353,0 c 16.565,0, 30.118,13.553, 30.118,30.118L 150.588,269.176 C 150.588,285.741, 137.035,299.294, 120.471,299.294z M 120.471,178.824L 30.118,178.824 L 30.118,269.176 l 90.353,0 L 120.471,178.824 zM 120.471,118.588L 30.118,118.588 c-16.565,0-30.118-13.523-30.118-30.118l0-90.353 c0-16.565, 13.553-30.118, 30.118-30.118l 90.353,0 c 16.565,0, 30.118,13.553, 30.118,30.118l0,90.353 C 150.588,105.065, 137.035,118.588, 120.471,118.588z M 120.471-1.882L 30.118-1.882 l0,90.353 l 90.353,0 L 120.471-1.882 zM 301.176,480L 210.824,480 C 194.259,480, 180.706,466.447, 180.706,449.882l0-90.353 c0-16.565, 13.553-30.118, 30.118-30.118l 90.353,0 c 16.565,0, 30.118,13.553, 30.118,30.118L 331.294,449.882 C 331.294,466.447, 317.741,480, 301.176,480z M 301.176,359.529L 210.824,359.529 L 210.824,449.882 l 90.353,0 L 301.176,359.529 zM 301.176,299.294L 210.824,299.294 C 194.259,299.294, 180.706,285.741, 180.706,269.176l0-90.353 c0-16.565, 13.553-30.118, 30.118-30.118l 90.353,0 c 16.565,0, 30.118,13.553, 30.118,30.118L 331.294,269.176 C 331.294,285.741, 317.741,299.294, 301.176,299.294z M 301.176,178.824L 210.824,178.824 L 210.824,269.176 l 90.353,0 L 301.176,178.824 zM 301.176,118.588L 210.824,118.588 c-16.565,0-30.118-13.523-30.118-30.118l0-90.353 c0-16.565, 13.553-30.118, 30.118-30.118l 90.353,0 c 16.565,0, 30.118,13.553, 30.118,30.118l0,90.353 C 331.294,105.065, 317.741,118.588, 301.176,118.588z M 301.176-1.882L 210.824-1.882 l0,90.353 l 90.353,0 L 301.176-1.882 zM 481.882,480l-90.353,0 c-16.565,0-30.118-13.553-30.118-30.118l0-90.353 c0-16.565, 13.553-30.118, 30.118-30.118l 90.353,0 c 16.565,0, 30.118,13.553, 30.118,30.118L 512,449.882 C 512,466.447, 498.447,480, 481.882,480z M 481.882,359.529l-90.353,0 L 391.529,449.882 l 90.353,0 L 481.882,359.529 zM 481.882,299.294l-90.353,0 c-16.565,0-30.118-13.553-30.118-30.118l0-90.353 c0-16.565, 13.553-30.118, 30.118-30.118l 90.353,0 c 16.565,0, 30.118,13.553, 30.118,30.118L 512,269.176 C 512,285.741, 498.447,299.294, 481.882,299.294z M 481.882,178.824l-90.353,0 L 391.529,269.176 l 90.353,0 L 481.882,178.824 zM 481.882,118.588l-90.353,0 c-16.565,0-30.118-13.523-30.118-30.118l0-90.353 c0-16.565, 13.553-30.118, 30.118-30.118l 90.353,0 c 16.565,0, 30.118,13.553, 30.118,30.118l0,90.353 C 512,105.065, 498.447,118.588, 481.882,118.588z M 481.882-1.882l-90.353,0 l0,90.353 l 90.353,0 L 481.882-1.882 z
			"  />
<glyph unicode="&#xe035;" d="M 781.545-47.034c-32.628,0-64.047,15.407-86.388,42.263c-21.039,25.181-32.721,58.554-32.721,93.882L 662.481,360.844
				c0,19.27-6.004,37.097-16.896,50.223c-18.944,22.668-48.873,22.668-67.724,0c-10.892-13.079-16.896-30.906-16.896-50.223L 560.919,89.111
				c0-35.328-11.683-68.701-32.815-93.929c-44.544-53.481-127.907-53.667-172.684,0C 334.336,20.503, 322.7,53.83, 322.7,89.111L 322.7,360.844
				c0,19.363-5.958,37.19-16.803,50.176c-18.944,22.761-48.826,22.761-67.77,0C 227.188,397.894, 221.184,380.113, 221.184,360.844L 221.184,89.111
				c0-34.909-10.426-67.77-29.417-92.765c-20.852-27.508-50.409-43.38-81.175-43.38L 34.164-47.034 c-18.851,0-34.164,15.313-34.164,34.164
				s 15.313,34.164, 34.164,34.164l 76.428,0 c 12.474,0, 22.156,10.24, 26.764,16.337c 9.821,12.94, 15.5,31.651, 15.5,51.433L 152.902,360.844
				c0,35.235, 11.636,68.608, 32.768,93.929c 44.73,53.667, 128.093,53.574, 172.73,0c 21.085-25.228, 32.721-58.601, 32.721-93.929L 391.075,89.111
				c0-19.316, 6.004-37.097, 16.896-50.223c 18.944-22.668, 48.873-22.668, 67.724,0c 10.892,13.033, 16.896,30.906, 16.896,50.223L 492.637,360.844
				c0,35.328, 11.683,68.655, 32.815,93.975c 44.544,53.481, 127.907,53.62, 172.684,0c 21.132-25.367, 32.768-58.74, 32.768-93.929L 730.903,89.111
				c0-19.316, 6.004-37.143, 16.849-50.223c 18.991-22.854, 48.919-22.668, 67.724,0c 10.892,13.079, 16.896,30.906, 16.896,50.223L 832.372,360.844
				c0,35.235, 11.636,68.608, 32.768,93.929c 44.497,53.62, 128.14,53.667, 172.73-0.047C 1058.909,429.452, 1070.545,396.032, 1070.545,360.844
				c0-18.851-15.313-34.164-34.164-34.164S 1002.217,341.946, 1002.217,360.844c0,19.27-6.004,37.097-16.896,50.223c-18.851,22.714-48.873,22.668-67.631,0.047
				c-10.938-13.172-16.943-30.999-16.943-50.269L 900.701,89.111 c0-35.235-11.636-68.608-32.768-93.929C 845.591-31.674, 814.127-47.034, 781.545-47.034z" horiz-adv-x="1070.545"  />
<glyph unicode="&#xe036;" d="M 478.883,488.681c-16.384,0-31.721-6.423-43.264-18.060c-11.567-11.66-17.827-27.066-17.664-43.45l 0.535-54.458
		c 0.093-8.262-3.072-16.081-8.913-21.969c-5.865-5.911-13.615-9.146-21.876-9.146L 175.5,341.574 c-64.489-0.116-116.922-54.202-116.922-118.668L0,222.906 l0-263.61
		l 439.296,0 L 439.296,222.929 L 87.878,222.929 c0,48.5, 39.354,88.576, 87.855,88.576l 207.337,0 c 20.992,0, 36.329,6.423, 47.872,18.060c 11.567,11.66, 17.827,27.066, 17.664,43.45
		l-0.535,54.458c-0.093,8.262, 3.072,16.081, 8.913,21.969C 462.825,455.331, 470.598,458.566, 478.883,458.566l 126.208,0 L 605.091,488.681 L 478.883,488.681 z M 409.996,193.629l0-205.033
		L 29.324-11.404 l0,205.033 L 409.996,193.629 zM 58.577,164.352L 87.878,164.352L 87.878,135.052L 58.577,135.052zM 117.178,164.352L 146.479,164.352L 146.479,135.052L 117.178,135.052zM 175.732,164.352L 205.033,164.352L 205.033,135.052L 175.732,135.052zM 234.31,164.352L 263.61,164.352L 263.61,135.052L 234.31,135.052zM 292.887,164.352L 322.164,164.352L 322.164,135.052L 292.887,135.052zM 87.878,105.751L 117.178,105.751L 117.178,76.451L 87.878,76.451zM 146.455,105.751L 175.732,105.751L 175.732,76.451L 146.455,76.451zM 205.033,105.751L 234.333,105.751L 234.333,76.451L 205.033,76.451zM 322.141,47.174L 351.441,47.174L 351.441,17.873L 322.141,17.873zM 263.61,105.751L 292.887,105.751L 292.887,76.451L 263.61,76.451zM 322.141,105.751L 380.719,105.751L 380.719,76.451L 322.141,76.451zM 351.441,164.352L 380.742,164.352L 380.742,135.052L 351.441,135.052zM 146.455,47.174L 292.864,47.174L 292.864,17.873L 146.455,17.873zM 58.577,47.174L 117.155,47.174L 117.155,17.873L 58.577,17.873z" horiz-adv-x="605.091" />
<glyph unicode="&#xe037;" d="M 480,87.136L 480,128 c0,70.688-57.312,128-128,128L 288,256 L 288,360.864 C 307.072,372, 320,392.416, 320,416c0,35.328-28.672,64-64,64S 192,451.328, 192,416
	c0-23.584, 12.928-44, 32-55.136L 224,256 L 160,256 c-70.688,0-128-57.312-128-128l0-40.864 C 12.928,76,0,55.584,0,32c0-35.328, 28.672-64, 64-64s 64,28.672, 64,64
	c0,23.584-12.928,44-32,55.136L 96,128 c0,35.328, 28.672,64, 64,64l 64,0 l0-104.864 C 204.928,76, 192,55.584, 192,32c0-35.328, 28.672-64, 64-64s 64,28.672, 64,64
	c0,23.584-12.928,44-32,55.136L 288,192 l 64,0 c 35.328,0, 64-28.672, 64-64l0-40.864 c-19.072-11.136-32-31.52-32-55.136c0-35.328, 28.672-64, 64-64s 64,28.672, 64,64
	C 512,55.584, 499.072,76, 480,87.136z" />
<glyph unicode="&#xe038;" d="M 477.867,104.533L 477.867,241.067 L 273.067,241.067 L 273.067,343.467 l 102.4,0 L 375.467,480 L 136.533,480 l0-136.533 l 102.4,0 l0-102.4 L 68.267,241.067 l0-136.533 L0,104.533 l0-136.533 l 136.533,0 l0,136.533 L 102.4,104.533 L 102.4,206.933 l 136.533,0 l0-102.4 L 204.8,104.533 l0-136.533 l 136.533,0 l0,136.533 L 273.067,104.533 L 273.067,206.933 l 170.667,0 l0-102.4 l-34.133,0 l0-136.533 l 136.533,0 l0,136.533 L 477.867,104.533 z M 170.667,377.6L 170.667,445.867 l 170.667,0 l0-68.267 L 170.667,377.6 z M 102.4,2.133L 34.133,2.133 l0,68.267 l 68.267,0 L 102.4,2.133 z M 307.2,70.4l0-68.267 L 238.933,2.133
	l0,68.267 L 307.2,70.4 z M 512,2.133l-68.267,0 l0,68.267 l 68.267,0 L 512,2.133 z" horiz-adv-x="546.133" />
<glyph unicode="&#xe039;" d="M 512,77.714L 512,187.429 c0,60.599-49.152,109.714-109.714,109.714L 292.571,297.143 L 292.571,370.286 l 36.571,0 L 329.143,480 L 219.429,480 l0-109.714 l 36.571,0 l0-73.143 L 146.286,297.143 C 85.723,297.143, 36.571,248.027, 36.571,187.429l0-109.714 L0,77.714 l0-109.714 l 109.714,0 l0,109.714 L 73.143,77.714 L 73.143,187.429 c0,40.375, 32.768,73.143, 73.143,73.143l 109.714,0 l0-182.857 L 219.429,77.714 l0-109.714 l 109.714,0 l0,109.714 L 292.571,77.714 L 292.571,260.571
	l 109.714,0 c 40.375,0, 73.143-32.768, 73.143-73.143l0-109.714 l-36.571,0 l0-109.714 l 109.714,0 l0,109.714 L 512,77.714 z M 256,443.429l 36.571,0 l0-36.571 L 256,406.857 L 256,443.429 z M 73.143,4.571L 36.571,4.571 l0,36.571 l 36.571,0 L 73.143,4.571 z M 292.571,4.571L 256,4.571 l0,36.571 l 36.571,0 L 292.571,4.571 z M 512,4.571l-36.571,0 l0,36.571 l 36.571,0 L 512,4.571 z" horiz-adv-x="548.571" />
<glyph unicode="&#xe005;" d="M 416,480L 96,480 L0,384l0-320 l 96-96l 320,0 l 96,96L 512,384 L 416,480z M 480,96l-96-96L 128,0 l-96,96L 32,352 l 96,96l 256,0 l 96-96L 480,96 zM 141.248,416L 64,338.752l0-229.504 L 141.248,32l 229.504,0 L 448,109.248L 448,338.752 L 370.752,416L 141.248,416 z M 240,384C 266.496,384, 288,362.496, 288,336
		C 288,309.44, 266.496,288, 240,288S 192,309.44, 192,336C 192,362.496, 213.504,384, 240,384z M 320,64L 192,64 l0,32 l 32,0 L 224,224 L 192,224 L 192,256 l 96,0 l0-32 l0-128 l 32,0 L 320,64 z" />
<glyph unicode="&#xe03a;" d="M 239.991,206.933C 258.185,206.933, 273.067,222.259, 273.067,241.067L 273.067,445.867 c0,18.739-14.882,34.133-33.075,34.133S 206.916,464.606, 206.916,445.867l0-204.8 C 206.916,222.259, 221.798,206.933, 239.991,206.933zM 341.333,422.519l0-79.94 C 382.532,311.415, 409.6,262.468, 409.6,206.933c0-94.14-76.527-170.667-170.667-170.667c-94.071,0-170.667,76.527-170.667,170.667c0,57.549, 28.809,108.271, 72.533,139.196
		L 140.8,424.602 C 57.856,387.123,0,303.872,0,206.933c0-131.994, 107.008-238.933, 238.933-238.933c 131.994,0, 238.933,106.94, 238.933,238.933C 477.867,302.199, 421.99,384.188, 341.333,422.519z" horiz-adv-x="477.867" />
<glyph unicode="&#xe03b;" d="M 256,480C 114.624,480,0,365.376,0,224s 114.624-256, 256-256s 256,114.624, 256,256S 397.376,480, 256,480z M 224,416l 64,0 l0-160 L 224,256 L 224,416 z M 256,54.368c-93.504,0-169.568,76.064-169.568,169.632
	c0,67.2, 39.936,128.064, 101.696,155.2L 192,380.864l0-58.176 C 157.952,300.672, 137.632,264.32, 137.632,224c0-65.312, 53.12-118.432, 118.368-118.432
	c 65.312,0, 118.432,53.12, 118.432,118.432c0,40.32-20.384,76.672-54.432,98.688L 320,380.864 l 3.872-1.696c 61.824-27.136, 101.76-88, 101.76-155.2
	C 425.632,130.432, 349.504,54.368, 256,54.368z" />
<glyph unicode="&#xe03c;" d="M 292.571,481.17C 130.926,481.17,0,350.171,0,188.599l0-146.286 l 585.143,0 L 585.143,188.599 C 585.143,350.171, 454.144,481.17, 292.571,481.17z M 290.341,408.027c 20.151,0, 36.571-16.274, 36.571-36.206C 327.278,362.533, 323.657,353.17, 316.709,346.002
		C 309.87,338.907, 300.434,334.885, 290.706,334.885l-0.366,0 c-19.785,0-35.84,15.616-36.571,35.547C 253.769,391.461, 270.226,408.027, 290.341,408.027z M 74.569,140.654L 72.375,140.654
		C 60.782,141.861, 52.078,146.651, 45.934,154.295C 39.863,161.938, 37.083,171.447, 38.144,181.102c 1.938,18.505, 17.554,32.512, 36.206,32.512l 3.986-0.219
		c 9.728-1.061, 18.432-5.815, 24.503-13.422C 108.983,192.366, 111.799,182.747, 110.629,173.019C 108.507,154.258, 93.367,140.654, 74.569,140.654z M 141.422,255.013
		c-7.497-10.496-18.651-16.347-30.281-16.347c-7.643,0-15.141,2.45-21.138,6.912C 82.725,250.331, 77.129,258.597, 75.227,268.361
		C 73.289,277.906, 75.301,287.927, 80.64,295.826c 11.301,16.128, 34.633,20.699, 50.725,10.094C 148.151,293.742, 152.283,271.653, 141.422,255.013z M 206.153,313.307
		C 201.216,310.491, 195.145,308.882, 189.074,308.882c-13.202,0-25.929,7.424-32.439,18.871C 147.017,346.258, 153.71,367.872, 171.483,377.637
		c 17.554,9.509, 40.923,2.194, 49.627-15.177C 230.437,344.649, 223.927,322.962, 206.153,313.307z M 292.571,60.599c-30.281,0-54.857,24.576-54.857,54.857
		c0,30.208, 24.576,54.857, 54.857,54.857c 30.208,0, 54.857-24.649, 54.857-54.857C 347.429,85.175, 322.779,60.599, 292.571,60.599z M 403.785,335.031L 347.502,163.182
		C 334.080,178.615, 314.587,188.599, 292.571,188.599C 289.207,188.599, 286.062,188.014, 282.843,187.611l 86.418,162.121c 9.435,17.737, 23.625,29.55, 31.488,26.185
		C 408.722,372.517, 410.002,354.158, 403.785,335.031z M 441.856,257.755c-5.632,7.717-7.936,17.371-6.29,26.99c 1.573,9.691, 6.985,18.139, 15.141,23.771
		c 16.128,11.374, 39.936,7.095, 51.054-8.923c 5.339-7.387, 7.57-16.859, 6.071-26.368c-1.499-9.655-6.912-18.432-14.775-24.101
		c-6.802-4.608-14.007-6.839-21.358-6.839C 459.703,242.322, 448.768,247.954, 441.856,257.755z M 529.627,139.41
		c-6.802-4.608-14.007-6.839-21.358-6.839c-11.995,0-22.93,5.632-29.842,15.433c-5.632,7.717-7.936,17.371-6.29,26.99
		c 1.573,9.691, 6.985,18.139, 15.141,23.771c 16.128,11.374, 39.936,7.095, 51.054-8.923c 5.339-7.387, 7.57-16.859, 6.071-26.368
		C 542.939,153.893, 537.49,145.115, 529.627,139.41zM0-14.885c0-10.057, 8.229-18.286, 18.286-18.286l 548.571,0 c 9.984,0, 18.286,8.229, 18.286,18.286L 585.143,5.742 L0,5.742 L0-14.885 z" horiz-adv-x="585.143" />
<glyph unicode="&#xe03d;" d="M 448,480L 64,480 C 28.8,480,0,451.2,0,416l0-384 c0-35.2, 28.8-64, 64-64l 384,0 c 35.2,0, 64,28.8, 64,64L 512,416 C 512,451.2, 483.2,480, 448,480z M 256,192L 192,192 l0-96 L 64,224l 128,128l0-96 l 64,0 L 256,192 z M 448,64l-96,0 L 352,384
	l 96,0 L 448,64 z" />
<glyph unicode="&#xe03e;" d="M 403.008,443.616c-33.376-11.136-81.056-40.64-105.952-65.504L 161.312,242.368c-12.448-12.448-12.448-32.8,0-45.248l 67.872-67.872
		c 12.448-12.448, 32.8-12.448, 45.248,0l 135.744,135.744c 24.864,24.864, 54.368,72.576, 65.504,105.984L 512,480L 403.008,443.616z M 308.384,208.448
		c-18.752-18.752-49.12-18.752-67.872,0s-18.816,49.12,0,67.872c 18.752,18.752, 49.12,18.752, 67.872,0S 327.136,227.2, 308.384,208.448z M 398.88,298.944
		c-18.752-18.752-49.12-18.752-67.872,0s-18.752,49.12,0,67.872s 49.12,18.752, 67.872,0S 417.632,317.696, 398.88,298.944zM 70.752,197.12l 113.184,113.12c-24.928,24.864-65.632,24.864-90.496,0L 25.504,242.368c-12.448-12.448-12.448-32.8,0-45.248
		S 58.304,184.672, 70.752,197.12zM 229.184,38.752c-12.448-12.448-12.448-32.8,0-45.248s 32.8-12.448, 45.248,0l 67.872,67.872c 24.864,24.864, 24.864,65.632,0,90.496
		L 229.184,38.752zM 127.328,163.2c-6.176-6.24-6.176-16.448,0-22.624l 45.312-45.248c 6.176-6.24, 16.384-6.24, 22.624,0l 11.328,11.328L 138.624,174.496
		L 127.328,163.2zM0-32c 64,32, 160,96, 128,128S 32,32,0-32z" />
<glyph unicode="&#xe045;" d="M 186.182,14.545L 232.727,14.545L 232.727-32L 186.182-32zM 139.636,61.091L 186.182,61.091L 186.182,14.545L 139.636,14.545zM 93.091,480L 139.636,480L 139.636,433.455L 93.091,433.455zM 325.818,14.545L 372.364,14.545L 372.364-32L 325.818-32zM 372.364,61.091L 418.909,61.091L 418.909,14.545L 372.364,14.545zM 512,200.727L 512,247.273 l-46.545,0 L 465.455,293.818 L 465.455,340.364 L 465.455,386.909 L 418.909,386.909 L 418.909,433.455 L 372.364,433.455 l0-46.545 L 279.273,386.909 L 186.182,386.909 L 186.182,433.455 L 139.636,433.455 l0-46.545 L 93.091,386.909 l0-46.545 l0-46.545 l0-46.545 L 46.545,247.273 l0-46.545 L0,200.727 l0-46.545 l0-93.091 l 46.545,0 L 46.545,154.182 l 46.545,0 l0-93.091 l 46.545,0 L 139.636,107.636 l 139.636,0 l 139.636,0 l0-46.545 l 46.545,0 L 465.455,154.182 l 46.545,0 l0-93.091 l 46.545,0 L 558.545,154.182 L 558.545,200.727 L 512,200.727 z M 186.182,200.727L 139.636,200.727 L 139.636,293.818 l 46.545,0 L 186.182,200.727 z M 418.909,200.727L 372.364,200.727 L 372.364,293.818 l 46.545,0 L 418.909,200.727 zM 418.909,480L 465.455,480L 465.455,433.455L 418.909,433.455z" horiz-adv-x="558.545" />
<glyph unicode="&#xe046;" d="M 224,480C 100.32,480,0,379.68,0,256l0-240 L0,0 l0-16 C0-24.8, 7.2-32, 16-32l 32,0 C 56.8-32, 64-24.8, 64-16L 64,0 l 64,0 l0-16
	C 128-24.8, 135.2-32, 144-32l 32,0 C 184.8-32, 192-24.8, 192-16L 192,0 l 64,0 l0-16 C 256-24.8, 263.2-32, 272-32l 32,0 c 8.8,0, 16,7.2, 16,16L 320,0 l 64,0 l0-16
	c0-8.8, 7.2-16, 16-16l 32,0 c 8.8,0, 16,7.2, 16,16L 448,0 l0,16 L 448,256 C 448,379.68, 347.744,480, 224,480z M 128,240c0-22.624, 15.68-41.44, 36.736-46.56
	C 155.936,182.88, 142.816,176, 128,176C 101.568,176, 80,197.504, 80,224L 80,288 c0,26.432, 21.568,48, 48,48c 26.496,0, 48-21.568, 48-48
	C 149.504,288, 128,266.496, 128,240z M 356.736,193.44C 347.936,182.88, 334.816,176, 320,176C 293.568,176, 272,197.504, 272,224L 272,288 c0,26.432, 21.568,48, 48,48
	c 26.496,0, 48-21.568, 48-48C 341.504,288, 320,266.496, 320,240C 320,217.376, 335.68,198.56, 356.736,193.44z" horiz-adv-x="448" />
<glyph unicode="&#xe047;" d="M0,480l0-512 l 512,0 L 512,480 L0,480 z M 475.429,4.571L 36.571,4.571 L 36.571,443.429 l 438.857,0 L 475.429,4.571 zM 161.426,59.941L 264.85,163.438L 368.274,60.014L 419.986,111.726L 316.562,215.15L 419.986,318.574L 368.274,370.286L 264.85,266.862L 161.426,370.286L 109.714,318.574L 213.138,215.113L 109.714,111.653 	z" />
<glyph unicode="&#xe048;" d="M0,100.571L 292.571-45.714L 292.571,140.178L0,286.464 	zM 329.143-42.679L 585.143,85.321L 585.143,286.464L 329.143,144.786 	zM 512,355.035l0-8.375 l-0.293,0 C 510.501,333.531, 478.427,323.035, 438.857,323.035c-39.643,0-71.717,10.496-72.923,23.625L 365.714,346.661 L 365.714,397.714 l 0.439,0 L 365.714,396.178
		c0-13.458, 32.731-24.357, 73.143-24.357c 40.375,0, 73.143,10.898, 73.143,24.357C 512,409.673, 479.232,420.571, 438.857,420.571c-22.784,0-42.789-3.511-56.21-8.923L 365.202,419.255
		C 363.154,406.382, 331.557,396.178, 292.571,396.178S 221.989,406.382, 219.867,419.255L 202.496,411.648C 189.074,417.061, 168.997,420.571, 146.286,420.571C 105.874,420.571, 73.143,409.673, 73.143,396.178
		c0-13.458, 32.731-24.357, 73.143-24.357c 40.375,0, 73.143,10.898, 73.143,24.357L 218.917,397.714L 219.429,397.714 l0-51.054 L 219.136,346.661 C 217.929,333.531, 185.856,323.035, 146.286,323.035
		c-39.643,0-71.717,10.496-72.923,23.625L 73.143,346.661 L 73.143,355.035 L0,323.035l 292.571-146.286l 292.571,146.286L 512,355.035z M 365.714,270.482L 365.422,270.482 C 364.215,257.353, 332.142,246.857, 292.571,246.857
		c-39.643,0-71.717,10.496-72.923,23.625L 219.429,270.482 L 219.429,321.536 l 0.439,0 L 219.429,320c0-13.458, 32.731-24.357, 73.143-24.357c 40.375,0, 73.143,10.898, 73.143,24.357L 365.202,321.536L 365.714,321.536
		L 365.714,270.482 zM 219.429,469.321A73.143,24.393 180 1 1 365.714,469.321A73.143,24.393 180 1 1 219.429,469.321z" horiz-adv-x="585.143" />
<glyph unicode="&#xe049;" d="M 384,448L 384,480 L 288,480 l0-32 L 224,448 L 224,480 L 128,480 l0-32 L0,448 l0-480 l 512,0 L 512,448 L 384,448 z M 160,0L 32,0 L 32,416 l 96,0 l0-224 l 32,0 L 160,0 z M 192,0L 192,192 l 32,0 L 224,416 l 64,0 l0-224 l 32,0 l0-192 L 192,0 z M 480,0l-128,0 L 352,192 l 32,0 L 384,416 l 96,0 L 480,0 z" />
<glyph unicode="&#xe04a;" d="M 454.528,70.432C 488.032,113.408, 508.128,167.328, 508.128,225.952c0,56.64-18.88,108.864-50.304,151.168l 44.896,44.896c 12.352,12.352, 12.352,32.544,0,44.896
		l-0.064,0 c-12.352,12.352-32.544,12.352-44.896,0l-43.744-43.808C 370.304,458.624, 314.656,480, 254.048,480C 195.424,480, 141.536,459.84, 98.592,426.4L 57.984,466.912
		c-12.352,12.352-32.544,12.352-44.896,0s-12.352-32.544,0-44.896l 40.544-40.512C 20.16,338.464, 0,284.576, 0,225.952c0-60.576, 21.408-116.192, 56.928-159.904
		l-43.872-43.808c-12.352-12.352-12.352-32.544,0-44.896c 12.352-12.416, 32.544-12.416, 44.896-0.064l 44.96,44.896C 145.248-9.248, 197.44-28.128, 254.048-28.128
		c 58.624,0, 112.512,20.16, 155.488,53.6l 48.224-48.224c 12.352-12.352, 32.544-12.352, 44.896,0l0,0c 12.352,12.416, 12.352,32.544,0,44.896L 454.528,70.432
		z M 254.048,3.648c-122.56,0-222.304,99.744-222.304,222.304s 99.744,222.304, 222.304,222.304s 222.304-99.744, 222.304-222.304S 376.608,3.648, 254.048,3.648zM 254.048,416.48C 148.832,416.48, 63.52,331.168, 63.52,225.952s 85.312-190.56, 190.56-190.56s 190.56,85.312, 190.56,190.56S 359.296,416.48, 254.048,416.48z M 254.048,162.432c-35.072,0-63.52,28.416-63.52,63.52c0,35.072, 28.448,63.52, 63.52,63.52
		c 35.104,0, 63.52-28.448, 63.52-63.52C 317.568,190.848, 289.152,162.432, 254.048,162.432z" />
<glyph unicode="&#xe04b;" d="M 273.067,242.091C 241.937,200.277, 192.614,172.8, 136.533,172.8C 112.265,172.8, 89.19,178.057, 68.267,187.273L 68.267,36.267 c0-37.581, 30.72-68.267, 68.267-68.267l 273.067,0 c 37.547,0, 68.267,30.686, 68.267,68.267L 477.867,187.273
		C 456.943,178.057, 433.937,172.8, 409.6,172.8C 353.587,172.8, 304.196,200.277, 273.067,242.091z M 204.8,36.267L 102.4,36.267 l0,34.133 l 102.4,0 L 204.8,36.267 z M 341.333,36.267L 238.933,36.267 l0,34.133 l 102.4,0 L 341.333,36.267 z M 443.733,36.267l-34.133,0 l0,34.133 l 34.133,0 L 443.733,36.267 zM 136.533,480C 61.133,480,0,418.867,0,343.467s 61.133-136.533, 136.533-136.533s 136.533,61.133, 136.533,136.533S 211.934,480, 136.533,480z M 136.533,275.2C 98.816,275.2, 68.267,305.783, 68.267,343.467c0,37.683, 30.549,68.267, 68.267,68.267s 68.267-30.583, 68.267-68.267
		C 204.8,305.783, 174.251,275.2, 136.533,275.2zM 409.6,480C 334.199,480, 273.067,418.867, 273.067,343.467s 61.133-136.533, 136.533-136.533s 136.533,61.133, 136.533,136.533S 485.001,480, 409.6,480z M 409.6,275.2c-37.717,0-68.267,30.583-68.267,68.267c0,37.683, 30.549,68.267, 68.267,68.267
		s 68.267-30.583, 68.267-68.267C 477.867,305.783, 447.317,275.2, 409.6,275.2zM 102.4,343.467A34.133,34.133 180 1 1 170.667,343.467A34.133,34.133 180 1 1 102.4,343.467zM 375.467,343.467A34.133,34.133 180 1 1 443.733,343.467A34.133,34.133 180 1 1 375.467,343.467z" horiz-adv-x="546.133" />
<glyph unicode="&#xe04c;" d="M 256,256C 247.424,256, 239.424,252.672, 233.376,246.656c-12.512-12.512-12.512-32.8,0-45.28C 239.36,195.328, 247.424,192, 255.936,192
		c 8.576,0, 16.64,3.328, 22.688,9.376S 288,215.456, 288,224S 284.64,240.576, 278.624,246.656C 272.576,252.672, 264.576,256, 256,256zM 436.992,405.024c-99.936,99.968-262.048,99.968-361.984,0c-100-100-100-262.048,0-362.016c 99.936-99.968, 262.016-99.968, 361.984,0
		S 536.992,305.056, 436.992,405.024z M 148.576,26.080c-16.928,9.696-32.992,21.568-47.424,36s-26.304,30.496-36,47.424l 103.744,80.672
		c 4.512-13.728, 11.872-26.72, 22.752-37.6s 23.872-18.24, 37.632-22.784L 148.576,26.080z M 301.248,178.752C 288.736,166.272, 272.384,160, 255.936,160
		c-16.384,0-32.736,6.24-45.184,18.72c-24.992,24.992-24.992,65.536,0,90.528C 223.264,281.76, 239.616,288, 256,288s 32.736-6.24, 45.248-18.752
		C 326.24,244.256, 326.24,203.744, 301.248,178.752z M 350.176,250.752C 345.632,264.448, 338.304,277.44, 327.36,288.32c-10.88,10.912-23.872,18.24-37.568,22.816
		l 80.64,103.68c 16.992-9.696, 32.992-21.504, 47.488-35.968c 14.432-14.464, 26.24-30.464, 35.936-47.456L 350.176,250.752z" />
<glyph unicode="&#xe04d;" d="M 640,352l-42.667,0 L 597.333,437.333 c0,23.467-19.243,42.667-42.667,42.667L 128,480 C 104.491,480, 85.333,460.8, 85.333,437.333l0-85.333 L 42.667,352 C 19.157,352,0,332.8,0,309.333l0-298.667 c0-23.467, 19.157-42.667, 42.667-42.667l 597.333,0 c 23.424,0, 42.667,19.2, 42.667,42.667L 682.667,309.333
		C 682.667,332.8, 663.424,352, 640,352z M 128,437.333l 426.667,0 l0-85.333 L 128,352 L 128,437.333 z M 149.333,53.333C 90.411,53.333, 42.667,101.077, 42.667,160S 90.411,266.667, 149.333,266.667S 256,218.923, 256,160S 208.256,53.333, 149.333,53.333z M 384,96L 298.667,96 L 298.667,138.667 l 85.333,0
		L 384,96 z M 384,181.333L 298.667,181.333 L 298.667,224 l 85.333,0 L 384,181.333 z M 533.333,53.333C 474.411,53.333, 426.667,101.077, 426.667,160S 474.411,266.667, 533.333,266.667S 640,218.923, 640,160S 592.256,53.333, 533.333,53.333z" horiz-adv-x="682.667" />
<glyph unicode="&#xe04e;" d="M 746.112,255.36L 613.568,332.608c-29.568,17.216-77.888,45.44-107.456,62.72L 369.28,472.576C 339.712,489.856, 311.040,476.032, 311.040,441.728l0-124.416 L 289.28,332.608
	c-29.568,17.216-75.712,45.44-105.216,62.72L 52.608,472.576C 23.104,489.856,0,476.032,0,441.728l0-155.52 c0-34.176,0-90.112,0-124.416l0-155.52
	c0-34.176, 24.192-48.064, 53.696-30.848l 132.544,77.248c 29.568,17.216, 73.536,45.44, 103.040,62.72L 311.040,130.688l0-124.416 c0-34.176, 28.672-48.064, 58.24-30.848
	l 134.72,77.248c 29.568,17.216, 78.976,45.44, 108.48,62.72l 133.056,77.248C 775.168,209.92, 775.68,238.080, 746.112,255.36z" horiz-adv-x="768" />
<glyph unicode="&#xe04f;" d="M 452.288,472.576L 319.68,395.328c-29.568-17.216-77.888-45.44-107.456-62.72L 126.016,282.304l0,150.528 c0,17.088-14.016,31.104-31.104,31.104L 37.184,463.936
	c-17.088,0-31.104-14.016-31.104-31.104l0-417.728 c0-17.088, 14.016-31.104, 31.104-31.104l 57.728,0 c 17.088,0, 31.104,14.016, 31.104,31.104l0,150.528 l 86.272-50.304
	c 29.568-17.216, 77.888-45.44, 107.456-62.72l 132.544-77.248c 29.568-17.216, 53.696-3.328, 53.696,30.848l0,435.456 C 505.92,476.032, 481.728,489.856, 452.288,472.576z" />
<glyph unicode="&#xe053;" d="M 473.728,465.664L 416,465.664 C 398.912,465.664, 380.416,449.984, 380.416,432.832l0-150.528 L 296.448,332.608c-29.696,17.216-76.8,45.44-106.432,62.72L 59.328,472.576
	C 29.632,489.856, 7.168,475.904, 7.168,441.728l0-435.456 c0-34.304, 23.104-48.064, 52.608-30.848l 131.968,77.248c 29.568,17.216, 75.456,45.44, 105.024,62.72L 380.416,165.632L 380.416-0.896
	c0-17.088, 18.496-31.104, 35.584-31.104L 473.728-32 c 17.088,0, 31.104,14.016, 31.104,31.104L 504.832,432.832 C 504.832,449.984, 490.88,465.664, 473.728,465.664z" />
<glyph unicode="&#xe054;" d="M 113.778,480L 56.889,480 C 25.429,480,0,454.571,0,423.111l0-398.222 c0-31.46, 25.429-56.889, 56.889-56.889l 56.889,0 c 31.46,0, 56.889,25.429, 56.889,56.889L 170.667,423.111 C 170.667,454.571, 145.237,480, 113.778,480zM 398.222,480L 341.333,480 C 309.874,480, 284.444,454.571, 284.444,423.111l0-398.222 c0-31.46, 25.429-56.889, 56.889-56.889l 56.889,0 c 31.46,0, 56.889,25.429, 56.889,56.889L 455.111,423.111 C 455.111,454.571, 429.682,480, 398.222,480z" horiz-adv-x="455.111" />
<glyph unicode="&#xe055;" d="M 350.151,470.955l-145.124-107.292C 180.167,345.458, 159.915,334.137, 159.915,338.745c0,4.494-25.259,8.192-56.036,8.192L 58.994,346.88 c-30.891,0-56.036-25.259-56.036-56.036l0-123.221
	c0-30.891, 25.145-56.036, 56.036-56.036l 44.885,0 c 30.777,0, 56.036,1.308, 56.036,2.958s 20.252-12.060, 45.113-30.322l 145.124-107.179C 375.012-41.216, 395.264-30.976, 395.264-0.085l0,448.341
	C 395.264,478.919, 375.012,489.273, 350.151,470.955z" horiz-adv-x="398.222" />
<glyph unicode="&#xe056;" d="M 160,288L 192,288L 192,64L 160,64zM 224,288L 256,288L 256,64L 224,64zM 288,288L 320,288L 320,64L 288,64zM 448,384l-64,0 L 384,448 c0,17.664-14.304,32-32,32L 128,480 C 110.304,480, 96,465.664, 96,448l0-64 L 32,384 C 14.304,384,0,369.664,0,352c0-17.696, 14.304-32, 32-32l 32,0 l0-320
		c0-17.696, 14.304-32, 32-32l 288,0 c 17.696,0, 32,14.304, 32,32L 416,320 l 32,0 c 17.696,0, 32,14.304, 32,32C 480,369.664, 465.696,384, 448,384z M 160,416l 160,0 l0-32 L 160,384 L 160,416 z M 352,32L 128,32 L 128,320 l 224,0 L 352,32 z" horiz-adv-x="480" />
<glyph unicode="&#xe057;" d="M 352,32l-32,0 L 320,288 L 256,288 l0-256 L 224,32 L 224,288 L 160,288 l0-256 L 128,32 L 128,288 L 64,288 l0-304 C 64-24.8, 71.2-32, 80-32l 320,0 c 8.8,0, 16,7.2, 16,16L 416,288 l-64,0 L 352,32 zM 448,416l-128,0 L 320,464 C 320,472.768, 312.8,480, 304,480l-128,0 C 167.2,480, 160,472.768, 160,464L 160,416 L 32,416 C 14.432,416,0,401.6,0,384l0-32 c0-17.6, 14.432-32, 32-32l 416,0
		c 17.632,0, 32,14.4, 32,32L 480,384 C 480,401.6, 465.632,416, 448,416z M 192,416L 192,448 l 96,0 l0-32 L 192,416 z" horiz-adv-x="480" />
<glyph unicode="&#x20;" horiz-adv-x="256" />
<glyph class="hidden" unicode="&#xf000;" d="M0,480L 512 -32L0 -32 z" horiz-adv-x="0" />
</font>
</defs>
</svg>
